<?xml version="1.0" standalone="no"?>
<!DOCTYPE svg PUBLIC "-//W3C//DTD SVG 20010904//EN"
 "http://www.w3.org/TR/2001/REC-SVG-20010904/DTD/svg10.dtd">
<svg version="1.0" xmlns="http://www.w3.org/2000/svg"
 width="558.000000pt" height="558.000000pt" viewBox="0 0 558.000000 558.000000"
 preserveAspectRatio="xMidYMid meet">

<g transform="translate(0.000000,558.000000) scale(0.100000,-0.100000)"
fill="#000000" stroke="none">
<path d="M1229 3226 c-214 -59 -340 -270 -308 -516 16 -129 48 -199 125 -270
128 -118 376 -146 550 -64 93 44 169 151 181 255 l6 49 -125 0 -126 0 -6 -34
c-14 -73 -102 -125 -187 -111 -91 15 -146 90 -156 211 -14 175 59 294 181 294
81 0 123 -34 150 -122 5 -16 20 -18 132 -18 l127 0 -5 44 c-6 52 -45 139 -82
183 -35 42 -101 79 -172 98 -70 18 -220 18 -285 1z"/>
<path d="M1880 2785 l0 -445 125 0 125 0 0 161 0 160 33 -3 c30 -3 37 -12 121
-160 l88 -158 130 0 c120 0 130 1 123 18 -3 9 -44 82 -89 162 -46 80 -88 154
-94 166 -10 19 -6 24 37 52 68 45 102 110 102 201 0 38 -4 86 -10 107 -22 83
-106 149 -219 173 -30 6 -145 11 -262 11 l-210 0 0 -445z m437 221 c32 -38 32
-105 -1 -143 -22 -25 -31 -28 -105 -31 l-81 -4 0 107 0 108 82 -5 c73 -4 84
-8 105 -32z"/>
<path d="M2730 2785 l0 -445 110 0 110 0 2 273 3 272 105 -272 105 -273 41 0
42 0 51 133 c29 72 75 192 104 265 l52 134 5 -264 5 -263 125 0 125 0 3 443 2
442 -164 0 -164 0 -40 -112 c-22 -62 -59 -166 -82 -231 -24 -65 -46 -115 -50
-110 -4 4 -43 108 -86 231 l-79 222 -162 0 -163 0 0 -445z"/>
<path d="M3872 2788 l3 -443 210 0 c242 0 307 12 403 74 97 63 155 162 172
294 25 196 -41 367 -170 445 -99 59 -132 65 -388 70 l-232 4 2 -444z m421 226
c77 -39 107 -102 107 -229 0 -164 -73 -245 -222 -245 l-48 0 0 245 0 245 65 0
c41 0 78 -6 98 -16z"/>
</g>
</svg>
