<svg fill="none" xmlns="http://www.w3.org/2000/svg">
  <symbol viewBox="0 0 12 12" id="essentialPlus">
    <path d="M12 5H7V0H5V5H0V7H5V12H7V7H12V5Z" fill="#dddddd"/>
  </symbol>
  <symbol viewBox="0 0 18 18" id="search">
    <path d="M18 16.6L14.5 13.1C15.6 11.7 16.2 10 16.2 8.1C16.2 3.6 12.6 0 8.1 0C3.6 0 0 3.6 0 8.1C0 12.6 3.6 16.2 8.1 16.2C10 16.2 11.7 15.6 13.1 14.5L16.6 18L18 16.6ZM8.1 14.2C4.8 14.2 2 11.5 2 8.1C2 4.7 4.8 2 8.1 2C11.4 2 14.2 4.7 14.2 8.1C14.2 11.5 11.5 14.2 8.1 14.2Z" />
  </symbol>
  <symbol viewBox="0 0 20 14" id="mail">
    <path d="M17 0H3C1.3 0 0 1.3 0 3V11C0 12.7 1.3 14 3 14H17C18.7 14 20 12.7 20 11V3C20 1.3 18.7 0 17 0ZM16.2 2L12.3 5.4C11 6.5 8.9 6.5 7.6 5.4L3.8 2H16.2ZM17 12H3C2.4 12 2 11.6 2 11V3.1L6.3 7C7.3 7.9 8.6 8.3 10 8.3C11.4 8.3 12.6 7.9 13.7 7L18 3.1V11C18 11.6 17.6 12 17 12Z"/>
  </symbol>
  <symbol viewBox="0 0 18 20" id="alert">
    <path d="M16 15V9C16 5.5 13.4 2.6 10 2.1V0H8V2.1C4.6 2.6 2 5.5 2 9V15H0V17H2H16H18V15H16ZM4 15V9C4 6.2 6.2 4 9 4C11.8 4 14 6.2 14 9V15H4Z"/>
    <path d="M11 18H7V20H11V18Z"/>
  </symbol>
  <symbol viewBox="0 0 2 12" id="tooltip">
    <path d="M2 12L2 4L0 4L0 12L2 12Z" />
    <path d="M2 0H0V2H2V0Z" />
  </symbol>
  <symbol viewBox="0 0 15 9" id="filter-icon">
    <g>
      <path d="M2.04545 0H0V1.5H2.04545V0Z" />
      <path d="M4.77282 0H3.40918V1.5H4.77282V0Z" />
      <path d="M14.9999 0H6.13623V1.5H14.9999V0Z" />
      <path d="M2.04545 7.5H0V9H2.04545V7.5Z" />
      <path d="M4.77282 7.5H3.40918V9H4.77282V7.5Z" />
      <path d="M14.9999 7.5H6.13623V9H14.9999V7.5Z" />
      <path d="M15 3.75H12.9546V5.25H15V3.75Z" />
      <path d="M11.5907 3.75H10.2271V5.25H11.5907V3.75Z" />
      <path d="M8.86364 3.75H0V5.25H8.86364V3.75Z" />
    </g>
  </symbol>
  <symbol viewBox="0 0 17 17" id="close-modal">
    <path d="M17 1.6L15.4 0L8.5 6.9L1.6 0L0 1.6L6.9 8.5L0 15.4L1.6 17L8.5 10.1L15.4 17L17 15.4L10.1 8.5L17 1.6Z" />
  </symbol>
  <symbol viewBox="0 0 11 6" id="select-arrow">
    <path d="M6.1 5.79961L10.8 1.29961C11.1 0.999609 11.1 0.499609 10.8 0.199609C10.5 -0.100391 10 -0.100391 9.7 0.199609L5.5 4.19961L1.3 0.199609C1 -0.100391 0.5 -0.100391 0.2 0.199609C0.1 0.399609 0 0.599609 0 0.799609C0 0.999609 0.1 1.19961 0.2 1.29961L4.9 5.79961C5.3 6.09961 5.7 6.09961 6.1 5.79961Z" fill="black" fill-opacity="0.3" />
  </symbol>
  <symbol viewBox="0 0 13 13" id="clear-field">
    <path opacity="0.3" d="M13 1.22353L11.7765 0L6.5 5.27647L1.22353 0L0 1.22353L5.27647 6.5L0 11.7765L1.22353 13L6.5 7.72353L11.7765 13L13 11.7765L7.72353 6.5L13 1.22353Z" fill="black"/>
  </symbol>
  <symbol viewBox="0 0 18 18" id="field-search">
    <path d="M18 16.6L14.5 13.1C15.6 11.7 16.2 10 16.2 8.1C16.2 3.6 12.6 0 8.1 0C3.6 0 0 3.6 0 8.1C0 12.6 3.6 16.2 8.1 16.2C10 16.2 11.7 15.6 13.1 14.5L16.6 18L18 16.6ZM8.1 14.2C4.8 14.2 2 11.5 2 8.1C2 4.7 4.8 2 8.1 2C11.4 2 14.2 4.7 14.2 8.1C14.2 11.5 11.5 14.2 8.1 14.2Z" fill="black" fill-opacity="0.3" />
  </symbol>
  <symbol viewBox="0 0 16 16" id="date-ico">
    <path d="M14 0V3H10V0H6V3H2V0H0V16H16V0H14ZM14 14H2V5H14V14Z" fill="black" fill-opacity="0.3"/>
    <path d="M5 0H3V2H5V0Z" fill="black" fill-opacity="0.3"/>
    <path d="M13 0H11V2H13V0Z" fill="black" fill-opacity="0.3"/>
    <path d="M6 7H4V9H6V7Z" fill="black" fill-opacity="0.3"/>
    <path d="M6 10H4V12H6V10Z" fill="black" fill-opacity="0.3"/>
    <path d="M9 7H7V9H9V7Z" fill="black" fill-opacity="0.3"/>
    <path d="M9 10H7V12H9V10Z" fill="black" fill-opacity="0.3"/>
    <path d="M12 7H10V9H12V7Z" fill="black" fill-opacity="0.3"/>
    <path d="M12 10H10V12H12V10Z" fill="black" fill-opacity="0.3"/>
  </symbol>
  <symbol viewBox="0 0 14 14" id="exit">
    <path d="M12.9 6.70002C12.9 6.60002 12.8 6.50002 12.7 6.50002L10.3 4.00002C10 3.70002 9.5 3.70002 9.2 4.00002C8.9 4.30002 8.9 4.70002 9.2 5.00002L10.4 6.20002H4.7C4.3 6.30002 4 6.60002 4 7.00002C4 7.40002 4.3 7.80002 4.8 7.80002H10.5L9.2 9.00002C8.9 9.30002 8.9 9.80002 9.2 10.1C9.3 10.2 9.5 10.3 9.7 10.3C9.9 10.3 10.1 10.2 10.2 10.1L12.7 7.60002C12.8 7.50002 12.8 7.40002 12.9 7.40002C13 7.10002 13 6.90002 12.9 6.70002Z" fill="black" fill-opacity="0.3"/>
    <path d="M1.5 1.5H7V0H1C0.4 0 0 0.4 0 1V13C0 13.6 0.4 14 1 14H7V12.5H1.5V1.5Z" fill="black" fill-opacity="0.3"/>
  </symbol>
  <symbol viewBox="0 0 18 11" id="back">
    <path d="M15 1.4H7V0L0 2L6.9 4V2.8H14.9C15.2 2.8 16.6 2.8 16.6 4.2V8.4C16.6 8.7 16.5 9 16.3 9.2C15.9 9.6 15.2 9.7 14.9 9.7H2.8V11H15C15 11 15 11 15.1 11C15.4 11 16.6 10.9 17.3 10.2C17.7 9.7 18 9.1 18 8.3V4.2C18 2.8 16.2 1.4 15 1.4Z" fill="#010101" fill-opacity="0.3"/>
  </symbol>
  <symbol viewBox="0 0 7 7" id="tableArrowDown">
    <path d="M5.4 1L3.5 4.8L1.6 1L5.4 1ZM7 0L0 0L3.5 7L7 0Z" fill="black"/>
  </symbol>
  <symbol viewBox="0 0 7 7" id="tableArrowUp">
    <path d="M1.6 6L3.5 2.2L5.4 6L1.6 6ZM0 7L7 7L3.5 3.0598e-07L0 7Z" fill="black"/>
  </symbol>
  <symbol viewBox="0 0 13 9" id="sms">
    <path d="M11.5 0H1.5C0.7 0 0 0.7 0 1.5V7.5C0 8.3 0.7 9 1.5 9H11.5C12.3 9 13 8.3 13 7.5V1.5C13 0.7 12.3 0 11.5 0ZM11.9 1.2C11.9 1.1 11.9 1.2 11.9 1.2V1.2ZM10.7 1L8.7 2.8C7.5 3.9 5.5 3.9 4.2 2.8L2.3 1H10.7ZM1.2 1.1C1.1 1.2 1.1 1.1 1.2 1.1V1.1ZM12 7.5C12 7.8 11.8 8 11.5 8H1.5C1.2 8 1 7.8 1 7.5V1.5C1 1.4 1 1.3 1.1 1.3L3.6 3.6C4.4 4.3 5.4 4.7 6.5 4.7C7.6 4.7 8.6 4.3 9.4 3.6L11.9 1.3C12 1.3 12 1.4 12 1.5V7.5Z" />
  </symbol>
  <symbol viewBox="0 0 18 16" id="like">
    <path d="M4 15.8C4 16 3.9 16 3.8 16C2.6 16 1.4 16 0.2 16C0.1 16 0 16 0 15.8C0 12.6 0 9.4 0 6.2C0 6 0.1 6 0.2 6C1.4 6 2.6 6 3.8 6C4 6 4 6.1 4 6.2C4 7.8 4 14.2 4 15.8Z"/>
    <path d="M17.9 8.3C17.3 10.2 16.6 12.1 16 14C15.9 14.3 15.8 14.6 15.7 14.8C15.5 15.5 14.9 15.9 14.1 15.9C13.3 15.9 8.8 15.9 8.8 15.9C8.4 15.9 8 15.9 7.6 15.9C7.3 15.9 7.1 15.9 6.8 15.8C5.8 15.5 5 14.6 5 13.5C5 12 5 10.5 5 9C5 8.1 5 7.2 5 6.3C5 6.1 5 6 5.2 5.9C6.8 4 8.3 2.1 9.9 0.1C10 0 10.1 0 10.2 0C11.4 0.6 11.9 2 11.3 3.2C10.9 4.1 10.4 5 9.9 5.8C9.9 5.8 9.8 5.9 9.8 6H16.5C17.1 6.1 17.5 6.5 17.8 7.1C18.1 7.5 18 7.9 17.9 8.3Z"/>
  </symbol>
  <symbol viewBox="0 0 18 16" id="dislike">
    <path d="M17.9 7.7C17.3 5.8 16.6 3.9 16 2C15.9 1.7 15.8 1.4 15.7 1.2C15.4 0.4 14.9 0 14.1 0C13.3 0 8.8 0 8.8 0C8.4 0 8 0 7.6 0C7.4 0 7.1 0 6.8 0.1C5.8 0.4 5 1.3 5 2.3C5 3.8 5 5.3 5 6.8C5 7.7 5 8.6 5 9.5C5 9.7 5 9.8 5.2 9.9C6.8 11.8 8.4 13.8 10 15.8C10 16 10.1 16 10.2 16C11.4 15.4 11.9 14 11.3 12.8C10.9 11.9 10.4 11.1 9.9 10.2C9.9 10.2 9.8 10.1 9.8 10H16.5C17.1 9.9 17.5 9.5 17.8 8.9C18.1 8.5 18 8.1 17.9 7.7Z"/>
    <path d="M4 5C4 3.4 4 1.8 4 0.2C4 0 3.9 0 3.8 0C2.6 0 1.4 0 0.2 0C0.1 0 0 0 0 0.2C0 3.4 0 6.6 0 9.8C0 10 0.1 10 0.2 10C1.4 10 2.6 10 3.8 10C4 10 4 9.9 4 9.8C4 8.2 4 6.6 4 5Z" />
  </symbol>
  <symbol viewBox="0 0 24 24" id="whatsapp">
    <path d="M20.2 3.5C17.8 1.1 14.9 0 11.8 0C5.2 0 0 5.3 0 11.9C0 14 0.5 16.1 1.6 17.9L0 24L6.4 22.4C8.1 23.4 10.1 23.8 12.1 23.8C18.6 23.8 23.9 18.5 24 11.9C23.7 8.9 22.4 5.8 20.2 3.5Z" fill="url(#paint0_linear_1856_1196)"/>
    <path d="M8.8998 6.90039C8.6998 6.60039 8.3998 6.40039 8.0998 6.40039C7.7998 6.40039 7.7998 6.40039 7.5998 6.40039C7.3998 6.40039 7.1998 6.60039 6.7998 6.90039C6.4998 7.10039 5.7998 7.90039 5.7998 9.30039C5.7998 10.7004 6.7998 12.2004 7.0998 12.4004C7.2998 12.6004 9.1998 15.8004 12.1998 16.9004C14.6998 17.9004 15.1998 17.7004 15.6998 17.7004C16.1998 17.7004 17.3998 16.9004 17.5998 16.3004C17.7998 15.5004 17.7998 15.0004 17.7998 14.9004C17.5998 14.7004 17.4998 14.6004 17.2998 14.4004C16.9998 14.2004 15.5998 13.6004 15.1998 13.4004C14.8998 13.4004 14.5998 13.4004 14.5998 13.6004C14.2998 13.9004 13.7998 14.6004 13.5998 14.7004C13.3998 14.9004 13.2998 15.0004 12.9998 14.9004C12.6998 14.7004 11.6998 14.4004 10.5998 13.5004C9.5998 12.7004 9.1998 11.7004 8.9998 11.4004C8.7998 11.1004 8.9998 10.9004 9.1998 10.8004C9.3998 10.8004 9.4998 10.6004 9.6998 10.3004C9.8998 10.0004 9.6998 10.0004 9.8998 9.80039C10.0998 9.60039 9.8998 9.30039 9.8998 9.30039C9.6998 9.00039 9.0998 7.60039 8.8998 6.90039Z" fill="white"/>
    <defs>
    <linearGradient id="paint0_linear_1856_1196" x1="12" y1="0.0523" x2="12" y2="24.1088" gradientUnits="userSpaceOnUse">
    <stop stop-color="#72BF44"/>
    <stop offset="1" stop-color="#03AA4B"/>
    </linearGradient>
    </defs>
  </symbol>
  <symbol viewBox="0 0 24 24" id="telegram">
    <path d="M12 24C18.6274 24 24 18.6274 24 12C24 5.37258 18.6274 0 12 0C5.37258 0 0 5.37258 0 12C0 18.6274 5.37258 24 12 24Z" fill="url(#paint0_linear_1856_1201)"/>
    <path d="M17.8998 6.69963L15.6998 17.5996C15.6998 17.5996 15.3998 18.3996 14.5998 18.0996L9.5998 14.2996L7.7998 13.4996L4.7998 12.3996C4.7998 12.3996 4.2998 12.1996 4.2998 11.8996C4.2998 11.5996 4.7998 11.3996 4.7998 11.3996L16.7998 6.79963C16.7998 6.69963 17.8998 6.09963 17.8998 6.69963Z" fill="white"/>
    <path d="M9.09941 17.5994C9.09941 17.5994 9.09941 17.5994 8.89941 16.9994C8.69941 16.4994 7.89941 13.4994 7.89941 13.4994L15.2994 8.89944C15.2994 8.89944 15.7994 8.69944 15.7994 8.89944C15.7994 8.89944 15.9994 8.89944 15.5994 9.09944C15.2994 9.39944 9.69941 14.3994 9.69941 14.3994" fill="#C7DFEB"/>
    <path d="M11.4996 15.6998L9.39961 17.5998C9.39961 17.5998 9.19961 17.7998 9.09961 17.5998L9.69961 14.2998" fill="#A8C9DE"/>
    <defs>
    <linearGradient id="paint0_linear_1856_1201" x1="12" y1="0" x2="12" y2="23.9125" gradientUnits="userSpaceOnUse">
    <stop stop-color="#2EBFE8"/>
    <stop offset="1" stop-color="#13A9DC"/>
    </linearGradient>
    </defs>
  </symbol>
  <symbol viewBox="0 0 24 24" id="instagram">
    <path d="M12 24C18.6274 24 24 18.6274 24 12C24 5.37258 18.6274 0 12 0C5.37258 0 0 5.37258 0 12C0 18.6274 5.37258 24 12 24Z" fill="url(#paint0_linear_1856_1190)"/>
    <path d="M12 13.5C12.8284 13.5 13.5 12.8284 13.5 12C13.5 11.1716 12.8284 10.5 12 10.5C11.1716 10.5 10.5 11.1716 10.5 12C10.5 12.8284 11.1716 13.5 12 13.5Z" fill="white"/>
    <path d="M15 6H9C7.3 6 6 7.3 6 9V15C6 16.7 7.3 18 9 18H15C16.7 18 18 16.7 18 15V9C18 7.3 16.7 6 15 6ZM12 15C10.3 15 9 13.7 9 12C9 10.3 10.3 9 12 9C13.7 9 15 10.3 15 12C15 13.7 13.7 15 12 15ZM15.6 9.3C15.1 9.3 14.7 8.9 14.7 8.4C14.7 7.9 15.1 7.5 15.6 7.5C16.1 7.5 16.5 7.9 16.5 8.4C16.5 8.9 16.1 9.3 15.6 9.3Z" fill="white"/>
    <defs>
    <linearGradient id="paint0_linear_1856_1190" x1="12" y1="-16.3302" x2="12" y2="39.6772" gradientUnits="userSpaceOnUse">
    <stop offset="0.0011048" stop-color="#FBE18A"/>
    <stop offset="0.2094" stop-color="#FCBB45"/>
    <stop offset="0.3765" stop-color="#F75274"/>
    <stop offset="0.5238" stop-color="#D53692"/>
    <stop offset="0.7394" stop-color="#8F39CE"/>
    <stop offset="1" stop-color="#5B4FE9"/>
    </linearGradient>
    </defs>
  </symbol>
  <symbol viewBox="0 0 12 12" id="plus">
    <path d="M12 5H7V0H5V5H0V7H5V12H7V7H12V5Z" />
  </symbol>
  <symbol viewBox="0 0 13 13" id="miniplus">
    <path d="M13 6H7V0H6V6H0V7H6V13H7V7H13V6Z"/>
  </symbol>
  <symbol viewBox="0 0 14 14" id="check">
    <path d="M14 0L4.35556 9.33333L0 4.97778V9.64444L4.35556 14L14 4.66667V0Z"/>
  </symbol>
  <symbol viewBox="0 0 18 18" id="check-close">
    <g opacity="0.3" clip-path="url(#clip0_2536_1152)">
    <path d="M12.5355 4.05025L8.99993 7.58579L5.4644 4.05025L4.05018 5.46447L7.58572 9L4.05018 12.5355L5.4644 13.9497L8.99993 10.4142L12.5355 13.9497L13.9497 12.5355L10.4141 9L13.9497 5.46447L12.5355 4.05025Z" fill="black"/>
    </g>
    <defs>
    <clipPath id="clip0_2536_1152">
    <rect width="12" height="12" fill="white" transform="translate(0.514648 9) rotate(-45)"/>
    </clipPath>
    </defs>
  </symbol>
  <symbol viewBox="0 0 11 11" id="close-checkbox">
    <path d="M9.02082 0.535543L5.48528 4.07108L1.94975 0.535543L0.535534 1.94976L4.07107 5.48529L0.535534 9.02082L1.94975 10.435L5.48528 6.8995L9.02082 10.435L10.435 9.02082L6.89949 5.48529L10.435 1.94976L9.02082 0.535543Z" />
  </symbol>
  <symbol viewBox="0 0 6 12" id="slider-left">
    <path d="M0.199903 6.65455L4.6999 11.7818C4.9999 12.1091 5.4999 12.1091 5.7999 11.7818C6.0999 11.4545 6.0999 10.9091 5.7999 10.5818L1.7999 6L5.7999 1.41818C6.0999 1.09091 6.0999 0.545455 5.7999 0.218182C5.5999 0.109091 5.3999 -2.73196e-08 5.1999 -3.60619e-08C4.9999 -4.48042e-08 4.7999 0.109091 4.6999 0.218182L0.199903 5.34545C-0.100097 5.78182 -0.100097 6.21818 0.199903 6.65455Z" />
  </symbol>
  <symbol viewBox="0 0 6 12" id="slider-right">
    <path d="M5.8001 5.34545L1.3001 0.218182C1.0001 -0.109092 0.500097 -0.109092 0.200097 0.218182C-0.0999028 0.545454 -0.0999028 1.09091 0.200097 1.41818L4.2001 6L0.200098 10.5818C-0.0999024 10.9091 -0.0999024 11.4545 0.200098 11.7818C0.400098 11.8909 0.600098 12 0.800098 12C1.0001 12 1.2001 11.8909 1.3001 11.7818L5.8001 6.65455C6.1001 6.21818 6.1001 5.78182 5.8001 5.34545Z" />
  </symbol>
  <symbol viewBox="0 0 16 17" id="settings">
    <path d="M7.99996 11.5C6.29996 11.5 4.89996 10.1 4.89996 8.5C4.89996 6.9 6.29996 5.5 7.99996 5.5C9.69996 5.5 11.1 6.9 11.1 8.5C11.1 10.1 9.69996 11.5 7.99996 11.5ZM7.99996 6.7C6.99996 6.7 6.19996 7.5 6.19996 8.5C6.19996 9.5 6.99996 10.3 7.99996 10.3C8.99996 10.3 9.79996 9.5 9.79996 8.5C9.79996 7.5 8.99996 6.7 7.99996 6.7Z" fill="black"/>
    <path d="M8.59997 17H7.39997C6.39997 17 5.59997 16.2 5.59997 15.2V14.8C5.59997 14.4 5.39997 14 4.99997 13.7C4.59997 13.5 4.19997 13.5 3.79997 13.7L3.49997 13.9C2.99997 14.2 2.49997 14.3 1.99997 14.1C1.49997 14 1.09997 13.7 0.899973 13.3L0.299973 12.2C0.0999734 11.8 -2.66358e-05 11.3 0.0999734 10.8C0.199973 10.3 0.499973 9.9 0.999973 9.7L1.29997 9.5C1.69997 9.3 1.89997 8.9 1.89997 8.4C1.89997 8 1.69997 7.6 1.29997 7.3H0.899973C-2.66433e-05 6.8 -0.300027 5.6 0.199973 4.8L0.799973 3.7C1.29997 2.8 2.39997 2.5 3.29997 3L3.59997 3.2C3.99997 3.4 4.39997 3.4 4.79997 3.2C5.29997 3 5.49997 2.6 5.49997 2.2V1.8C5.49997 0.8 6.29997 0 7.29997 0H8.49997C9.49997 0 10.3 0.8 10.3 1.8V2.2C10.3 2.6 10.5 3 10.9 3.3C11.3 3.5 11.7 3.5 12.1 3.3L12.4 3.1C13.3 2.6 14.4 2.9 14.9 3.8L15.5 4.9C15.7 5.3 15.8 5.8 15.7 6.3C15.6 6.8 15.3 7.2 14.8 7.4L14.5 7.6C14.1 7.8 13.9 8.2 13.9 8.7C13.9 9.1 14.1 9.5 14.5 9.8L14.8 10C15.2 10.2 15.5 10.6 15.7 11.1C15.8 11.6 15.8 12.1 15.5 12.5L14.9 13.6C14.7 14 14.3 14.3 13.8 14.4C13.3 14.5 12.8 14.5 12.4 14.2L12.1 14C11.7 13.8 11.3 13.8 10.9 14C10.5 14.2 10.3 14.6 10.3 15.1V15.5C10.5 16.2 9.59997 17 8.59997 17ZM4.29997 12.4C4.69997 12.4 5.09997 12.5 5.49997 12.7C6.29997 13.1 6.69997 13.9 6.69997 14.8V15.2C6.69997 15.5 6.99997 15.8 7.29997 15.8H8.49997C8.79997 15.8 9.09997 15.5 9.09997 15.2V14.8C9.09997 13.9 9.59997 13.1 10.3 12.7C11.1 12.3 12 12.3 12.8 12.7L13.1 12.9C13.2 13 13.4 13 13.6 13C13.8 13 13.9 12.9 14 12.7L14.6 11.6C14.8 11.3 14.7 10.9 14.4 10.8L14.1 10.6C13.3 10.2 12.9 9.4 12.9 8.5C12.9 7.6 13.4 6.8 14.1 6.4L14.4 6.2C14.5 6.1 14.6 6 14.7 5.8C14.8 5.6 14.7 5.5 14.6 5.3L14 4.2C13.8 3.9 13.5 3.8 13.2 4L12.9 4.2C12.1 4.6 11.2 4.6 10.4 4.2C9.69997 3.9 9.19997 3.1 9.19997 2.2V1.8C9.19997 1.5 8.89997 1.2 8.59997 1.2H7.39997C6.99997 1.2 6.79997 1.5 6.79997 1.8V2.2C6.79997 3.1 6.29997 3.9 5.59997 4.3C4.79997 4.7 3.89997 4.7 3.09997 4.3L2.79997 4.1C2.49997 3.9 2.09997 4 1.89997 4.3L1.29997 5.4C1.09997 5.7 1.19997 6 1.49997 6.2L1.79997 6.4C2.59997 6.8 2.99997 7.6 2.99997 8.5C2.99997 9.4 2.49997 10.2 1.79997 10.6L1.49997 10.8C1.39997 10.9 1.29997 11 1.19997 11.2C1.19997 11.4 1.19997 11.5 1.29997 11.7L1.89997 12.8C1.99997 12.8 2.09997 12.9 2.29997 13C2.49997 13 2.59997 13 2.79997 12.9L3.09997 12.7C3.49997 12.5 3.89997 12.4 4.29997 12.4Z" fill="black"/>
  </symbol>
  <symbol viewBox="0 0 11 47" id="visual-arrow-left">
    <path d="M1.39998 23.4999L11 0.899902C11.1 0.599902 11 0.199902 10.7 -9.76548e-05C10.4 -0.100098 9.99998 -9.76622e-05 9.79998 0.299902L0.0999756 23.1999C0.0999756 23.1999 0.0999756 23.2999 0.0999756 23.3999V23.4999V23.5999C0.0999756 23.6999 0.0999756 23.6999 0.0999756 23.7999L9.79998 46.5999C9.89998 46.8999 10.1 46.9999 10.4 46.9999C10.5 46.9999 10.6 46.9999 10.7 46.8999C11 46.7999 11.2 46.3999 11 45.9999L1.39998 23.4999Z" fill="black"/>
  </symbol>
  <symbol viewBox="0 0 11 47" id="visual-arrow-right">
    <path d="M9.59994 23.4999L0.0999397 0.899902C-6.02528e-05 0.599902 0.0999397 0.199902 0.39994 -9.76548e-05C0.69994 -0.100098 1.09994 -9.76622e-05 1.29994 0.299902L10.9999 23.0999C10.9999 23.0999 10.9999 23.1999 10.9999 23.2999V23.3999V23.4999C10.9999 23.5999 10.9999 23.5999 10.9999 23.6999L1.19994 46.5999C1.09994 46.8999 0.89994 46.9999 0.59994 46.9999C0.49994 46.9999 0.39994 46.9999 0.29994 46.8999C-6.02603e-05 46.7999 -0.20006 46.3999 -6.02603e-05 45.9999L9.59994 23.4999Z" fill="black"/>
  </symbol>
  <symbol viewBox="0 0 14 17" id="download">
    <path d="M0 17H14V15H0V17ZM4 0V6H0L7.001 13.001L14.001 6H10V0H4Z" fill="black"/>
  </symbol>
  <symbol viewBox="0 0 14 16" id="document">
    <path d="M0.1 4.8C0.2 4.7 0.2 4.6 0.3 4.6L4.9 0.2L5 0.1C5 0.1 5.1 0.1 5.1 0C5.2 0 5.3 0 5.4 0H11.7C13 0 14 1 14 2.2V13.8C14 15 13 16 11.7 16H2.3C1 16 0 15 0 13.8V5.1C0 5 0 4.9 0.1 4.8ZM4.7 2.5L2.7 4.4H4.7V2.5ZM2.3 14.5H11.7C12.1 14.5 12.5 14.2 12.5 13.8V2.2C12.5 1.8 12.1 1.5 11.7 1.5H6.2V5.1C6.2 5.5 5.9 5.9 5.4 5.9H1.5V13.8C1.5 14.2 1.9 14.5 2.3 14.5Z" />
    <path d="M3.89961 8H10.0996C10.4996 8 10.8996 8.3 10.8996 8.7C10.8996 9.1 10.5996 9.5 10.0996 9.5H3.89961C3.49961 9.5 3.09961 9.2 3.09961 8.7C3.09961 8.2 3.49961 8 3.89961 8Z"/>
    <path d="M3.89961 10.9H10.0996C10.4996 10.9 10.8996 11.2 10.8996 11.7C10.8996 12.2 10.5996 12.5 10.0996 12.5H3.89961C3.49961 12.5 3.09961 12.2 3.09961 11.7C3.09961 11.2 3.49961 10.9 3.89961 10.9Z" />
    <path d="M10.0992 6.59998H8.49922C8.09922 6.59998 7.69922 6.29998 7.69922 5.79998C7.69922 5.29998 8.09922 5.09998 8.59922 5.09998H10.0992C10.4992 5.09998 10.8992 5.39998 10.8992 5.89998C10.8992 6.39998 10.4992 6.59998 10.0992 6.59998Z" />
  </symbol>
  <symbol viewBox="0 0 16 16" id="rub">
    <path d="M15.7 6.00005C14.7 2.10005 10.9 -0.499952 6.9 0.100048C5.5 0.300048 4.1 0.800048 3 1.80005C2.8 1.90005 2.6 2.00005 2.4 2.20005C2.4 2.00005 2.4 1.80005 2.4 1.60005C2.4 1.10005 2.1 0.800048 1.6 0.800048C1.1 0.800048 0.8 1.10005 0.8 1.60005C0.8 2.60005 0.8 3.50005 0.8 4.50005C0.8 4.90005 1.2 5.30005 1.6 5.30005C2.6 5.30005 3.6 5.30005 4.6 5.30005C4.8 5.30005 5.1 5.20005 5.2 5.00005C5.4 4.70005 5.5 4.40005 5.3 4.10005C5.2 3.90005 5 3.70005 4.6 3.70005C4.1 3.70005 3.7 3.70005 3.2 3.70005C3.2 3.70005 3.2 3.60005 3.3 3.60005C4.8 2.10005 6.6 1.40005 8.7 1.60005C10.2 1.70005 11.4 2.30005 12.5 3.40005C14 4.90005 14.7 6.80005 14.4 8.90005C14.1 10.8 13.1 12.4 11.4 13.4C9.2 14.8 6.4 14.7 4.3 13.2C2.8 12.1 1.9 10.7 1.6 8.80005C1.6 8.70005 1.5 8.50005 1.4 8.40005C1.2 8.20005 0.8 8.10005 0.5 8.30005C0.2 8.40005 0 8.70005 0 9.10005C0 9.40005 0.1 9.70005 0.2 10C1.3 14 5.3 16.6 9.4 15.8C14 15 16.9 10.5 15.7 6.00005Z" />
    <path d="M5.10078 9.10007C4.70078 9.10007 4.30078 9.40007 4.30078 9.90007C4.30078 10.4001 4.60078 10.7001 5.10078 10.7001H6.00078V11.6001C6.00078 12.0001 6.30078 12.4001 6.80078 12.4001C7.30078 12.4001 7.60078 12.1001 7.60078 11.6001V10.7001H9.30078C9.70078 10.7001 10.1008 10.4001 10.1008 9.90007C10.1008 9.40007 9.70078 9.10007 9.30078 9.10007H7.60078V8.50007H9.30078C10.6008 8.50007 11.7008 7.40007 11.7008 6.10007C11.7008 4.80007 10.6008 3.70007 9.30078 3.70007H6.80078C6.40078 3.70007 6.00078 4.00007 6.00078 4.50007V7.00007H5.10078C4.70078 7.00007 4.40078 7.30007 4.40078 7.70007C4.40078 8.10007 4.70078 8.50007 5.20078 8.50007H6.10078V9.20007H5.10078V9.10007ZM9.30078 7.00007H7.60078V5.20007H9.30078C9.80078 5.20007 10.2008 5.60007 10.2008 6.10007C10.1008 6.60007 9.70078 7.00007 9.30078 7.00007Z" />
  </symbol>
  <symbol viewBox="0 0 384.971 384.971" id="logout">
    <path d="M180.455,360.91H24.061V24.061h156.394c6.641,0,12.03-5.39,12.03-12.03s-5.39-12.03-12.03-12.03H12.03
			C5.39,0.001,0,5.39,0,12.031V372.94c0,6.641,5.39,12.03,12.03,12.03h168.424c6.641,0,12.03-5.39,12.03-12.03
			C192.485,366.299,187.095,360.91,180.455,360.91z"/>
		<path d="M381.481,184.088l-83.009-84.2c-4.704-4.752-12.319-4.74-17.011,0c-4.704,4.74-4.704,12.439,0,17.179l62.558,63.46H96.279
			c-6.641,0-12.03,5.438-12.03,12.151c0,6.713,5.39,12.151,12.03,12.151h247.74l-62.558,63.46c-4.704,4.752-4.704,12.439,0,17.179
			c4.704,4.752,12.319,4.752,17.011,0l82.997-84.2C386.113,196.588,386.161,188.756,381.481,184.088z"/>
  </symbol>
  <symbol width="24" height="24" id="eye-no">
    <path d="M7.94961 9.09995L11.0996 5.94995L15.4496 1.59995C15.7496 1.29995 15.7496 0.849951 15.4496 0.549951C15.1496 0.249951 14.6996 0.249951 14.3996 0.549951L12.7496 2.19995C11.4746 1.37495 10.1996 0.999951 8.99961 0.999951C5.62461 0.999951 2.84961 3.99995 1.42461 5.79995C0.824609 6.54995 0.824609 7.52495 1.42461 8.27495C2.02461 9.02495 2.92461 10.075 3.97461 10.975L2.39961 12.55C2.09961 12.85 2.09961 13.3 2.39961 13.6C2.62461 13.675 2.77461 13.75 2.99961 13.75C3.22461 13.75 3.37461 13.675 3.52461 13.525L7.94961 9.09995C7.94961 9.17495 7.94961 9.09995 7.94961 9.09995ZM7.49961 6.99995C7.49961 6.17495 8.17461 5.49995 8.99961 5.49995C9.14961 5.49995 9.22461 5.49995 9.37461 5.57495L7.57461 7.37495C7.49961 7.22495 7.49961 7.14995 7.49961 6.99995ZM2.62461 7.29995C2.47461 7.07495 2.47461 6.84995 2.62461 6.62495C3.59961 5.42495 6.14961 2.49995 8.99961 2.49995C9.82461 2.49995 10.7246 2.79995 11.6246 3.32495L10.4996 4.44995C10.0496 4.14995 9.52461 3.99995 8.99961 3.99995C7.34961 3.99995 5.99961 5.34995 5.99961 6.99995C5.99961 7.52495 6.14961 8.04995 6.44961 8.49995L5.09961 9.84995C4.04961 9.02495 3.22461 8.04995 2.62461 7.29995Z" fill="black"/>
    <path d="M16.5006 5.79995C16.0506 5.27495 15.6756 4.74995 15.1506 4.29995C14.8506 3.99995 14.4006 3.99995 14.1006 4.29995C13.8006 4.59995 13.8006 5.04995 14.1006 5.34995C14.5506 5.79995 14.9256 6.24995 15.3006 6.77495C15.4506 6.99995 15.4506 7.22495 15.3006 7.44995C14.4006 8.57495 11.8506 11.5 9.00057 11.5C8.55057 11.5 8.17558 11.425 7.72558 11.275C7.35058 11.125 6.90058 11.425 6.82558 11.8C6.67558 12.175 6.90058 12.625 7.35058 12.7C7.95058 12.85 8.47558 12.925 9.07558 12.925C12.4506 12.925 15.2256 9.92495 16.6506 8.12495C17.1006 7.52495 17.1006 6.47495 16.5006 5.79995Z" fill="black"/>
  </symbol>
  <symbol width="24" height="24" id="eye-yes">
    <path d="M16.5746 4.8C15.1496 3 12.3746 0 8.99961 0C5.62461 0 2.84961 3 1.42461 4.8C0.824609 5.55 0.824609 6.525 1.42461 7.275C2.84961 9 5.62461 12 8.99961 12C12.3746 12 15.1496 9 16.5746 7.2C17.0996 6.525 17.0996 5.475 16.5746 4.8ZM15.3746 6.3C14.3996 7.575 11.8496 10.5 8.99961 10.5C6.14961 10.5 3.59961 7.575 2.62461 6.3C2.47461 6.075 2.47461 5.85 2.62461 5.625C3.59961 4.425 6.14961 1.5 8.99961 1.5C11.8496 1.5 14.3996 4.425 15.3746 5.7C15.5246 5.85 15.5246 6.15 15.3746 6.3Z" fill="black"/>
    <path d="M9 3C7.35 3 6 4.35 6 6C6 7.65 7.35 9 9 9C10.65 9 12 7.65 12 6C12 4.35 10.65 3 9 3ZM9 7.5C8.175 7.5 7.5 6.825 7.5 6C7.5 5.175 8.175 4.5 9 4.5C9.825 4.5 10.5 5.175 10.5 6C10.5 6.825 9.825 7.5 9 7.5Z" fill="black"/>
  </symbol>
  <symbol viewBox="0 0 10 10" id="copyico">
    <path d="M8.35714 10H1.64286C0.714286 10 0 9.28571 0 8.35714V1.64286C0 0.714286 0.714286 0 1.64286 0H3.85714C4.14286 0 4.42857 0.214286 4.42857 0.571429C4.42857 0.928571 4.21429 1.14286 3.85714 1.14286H1.64286C1.35714 1.14286 1.07143 1.35714 1.07143 1.71429V8.35714C1.07143 8.64286 1.28571 8.92857 1.64286 8.92857H8.28572C8.57143 8.92857 8.85714 8.71429 8.85714 8.35714V6.14286C8.85714 5.85714 9.07143 5.57143 9.42857 5.57143C9.71429 5.57143 10 5.78571 10 6.14286V8.35714C10 9.28571 9.28571 10 8.35714 10Z" fill="white"/>
    <path d="M6.64328 0C6.42899 0 6.2147 0.142857 6.14328 0.357143C6.07185 0.571429 6.14328 0.785714 6.28613 0.928571L7.28613 1.92857L4.57185 4.64286C4.35756 4.85714 4.35756 5.21429 4.57185 5.42857C4.78613 5.64286 5.14328 5.64286 5.35756 5.42857L8.00042 2.78571L9.00042 3.78571C9.07185 3.85714 9.2147 3.92857 9.42899 3.92857C9.50042 3.92857 9.57185 3.92857 9.64328 3.85714C9.85756 3.78571 10.0004 3.57143 10.0004 3.35714V0H6.64328Z" fill="white"/>
  </symbol>
  <symbol viewBox="0 0 16 16" id="past">
    <path d="M1,1.2C1,0.5,1.6,0,2.3,0c2.5,0,5.1,0,7.6,0c0.7,0,1.3,0.5,1.3,1.3c0,0.7,0,1.5,0,2.2c0,0.2,0,0.3,0.3,0.3
		c0.7,0,1.5,0,2.2,0C14.5,3.7,15,4.2,15,5c0,3.2,0,6.5,0,9.7c0,0.8-0.5,1.3-1.3,1.3c-2.5,0-5,0-7.6,0c-0.8,0-1.3-0.5-1.3-1.3
		c0-0.7,0-1.4,0-2.2c0-0.2,0-0.3-0.3-0.3c-0.7,0-1.5,0-2.2,0C1.5,12.3,1,11.8,1,11c0-1.6,0-3.2,0-4.8C1,4.5,1,2.9,1,1.2z M2.3,10.8
		c0,0.2,0,0.2,0.2,0.2c0.7,0,1.4,0,2.1,0c0.2,0,0.2-0.1,0.2-0.2c0-0.5,0-1,0-1.5S5,8.6,5.4,8.6s0.7,0.3,0.7,0.7c0,1.7,0,3.4,0,5.2
		c0,0.3,0,0.3,0.3,0.3c2.4,0,4.7,0,7.1,0c0.2,0,0.3-0.1,0.3-0.2c0-3.1,0-6.2,0-9.3c0-0.2-0.1-0.2-0.3-0.2c-1.6,0-3.2,0-4.8,0
		C8.2,4.9,7.9,4.5,8,4.1c0.1-0.2,0.3-0.4,0.6-0.4c0.4,0,0.7,0,1.1,0c0.2,0,0.2-0.1,0.2-0.2c0-0.7,0-1.4,0-2.1c0-0.1,0-0.2-0.2-0.2
		c-2.4,0-4.8,0-7.2,0c-0.2,0-0.2,0.1-0.2,0.2c0,1.6,0,3.1,0,4.7S2.3,9.3,2.3,10.8z"/>
	<path d="M10.5,9.5c-0.1,0-0.1-0.1-0.2-0.2C8.7,7.7,7,6.2,5.4,4.6C5.2,4.4,5.1,4.3,4.8,4.3c-0.3,0-0.5,0.1-0.6,0.3
		C4.1,4.9,4.1,5.1,4.3,5.3c0.1,0.1,0.1,0.1,0.2,0.2c1.6,1.6,3.3,3.2,4.9,4.7c0.1,0.1,0.1,0.1,0.2,0.2c-0.1,0-0.1,0-0.2,0
		c-0.5,0-0.9,0-1.4,0c-0.4,0-0.6,0.3-0.6,0.6c0,0.4,0.3,0.6,0.6,0.6c1.1,0,2.1,0,3.2,0c0.4,0,0.6-0.3,0.6-0.6c0-1,0-2.1,0-3.1
		c0-0.4-0.3-0.6-0.6-0.6c-0.4,0.1-0.7,0.3-0.7,0.7c0,0.4,0,0.9,0,1.3C10.5,9.4,10.5,9.4,10.5,9.5z"/>

  </symbol>
  <symbol viewBox="0 0 6 10" id="arrowe-btn-left">
    <path d="M0.198436 5.54545L4.69844 9.81818C4.99844 10.0909 5.49844 10.0909 5.79844 9.81818C6.09844 9.54545 6.09844 9.09091 5.79844 8.81818L1.79844 5L5.79844 1.18182C6.09844 0.909091 6.09844 0.454545 5.79844 0.181818C5.59844 0.0909091 5.39844 8.19589e-08 5.19844 1.08186e-07C4.99844 1.34413e-07 4.79844 0.0909092 4.69844 0.181818L0.198436 4.45455C-0.101564 4.81818 -0.101564 5.18182 0.198436 5.54545Z" />
  </symbol>
  <symbol viewBox="0 0 16 16" id="arrow-box">
    <path d="M8.53333 -3.26378e-07L10.0267 1.4L4.05333 7L16 7L16 9L4.05333 9L10.0267 14.6L8.53333 16L1.30337e-06 8L8.53333 -3.26378e-07Z"/>
  </symbol>
  <symbol viewBox="0 0 38 32" id="no-photo">
    <path d="M24.2,2l5.4,5.4C30,7.8,30.5,8,31,8h5v22H2V8h5c0.5,0,1-0.2,1.4-0.6L13.8,2H24.2 M25,0H13L7,6H2C0.9,6,0,6.9,0,8v22
		c0,1.1,0.9,2,2,2h34c1.1,0,2-0.9,2-2V8c0-1.1-0.9-2-2-2h-5L25,0L25,0z"/>
    <path d="M19,11c3.3,0,6,2.7,6,6s-2.7,6-6,6s-6-2.7-6-6S15.7,11,19,11 M19,9c-4.4,0-8,3.6-8,8s3.6,8,8,8s8-3.6,8-8S23.4,9,19,9L19,9
      z"/>
  </symbol>
  <symbol viewBox="0 0 30 30" id="timer">
    <path d="M15.0018 16.41L16.4118 15L11.4618 10.05L10.0518 11.46L15.0018 16.41ZM22.0718 7.93004C21.1457 6.99827 20.044 6.25952 18.8304 5.75657C17.6168 5.25362 16.3155 4.99648 15.0018 5.00004H14.0018V9.00004H16.0018V7.06004C17.7952 7.28671 19.459 8.1141 20.722 9.40738C21.9851 10.7007 22.7728 12.3836 22.957 14.1819C23.1412 15.9802 22.7109 17.7878 21.7362 19.3103C20.7616 20.8327 19.3 21.9802 17.5897 22.5657C15.8795 23.1511 14.0214 23.1402 12.3181 22.5345C10.6149 21.9288 9.16707 20.7641 8.21049 19.2302C7.25392 17.6964 6.84503 15.8837 7.05047 14.0877C7.2559 12.2917 8.06355 10.6183 9.34179 9.34004L10.0518 8.64004L8.64179 7.22004L7.93179 7.93004C6.97669 8.8525 6.21486 9.95595 5.69077 11.176C5.16668 12.396 4.89082 13.7082 4.87928 15.036C4.86775 16.3638 5.12076 17.6806 5.62357 18.9096C6.12638 20.1385 6.86891 21.2551 7.80784 22.194C8.74677 23.1329 9.86328 23.8754 11.0922 24.3783C12.3212 24.8811 13.638 25.1341 14.9658 25.1225C16.2936 25.111 17.6058 24.8351 18.8258 24.3111C20.0459 23.787 21.1493 23.0251 22.0718 22.07C23.9465 20.1948 24.9997 17.6517 24.9997 15C24.9997 12.3484 23.9465 9.80531 22.0718 7.93004Z" fill="black"/>
  </symbol>
</svg>

