<svg fill="none" xmlns="http://www.w3.org/2000/svg">
  <symbol viewBox="0 0 14 16" id="user">
    <g >
      <path d="M6.90002 1.5C8.30002 1.5 9.40002 2.6 9.40002 4C9.40002 5.4 8.30002 6.5 6.90002 6.5C5.50002 6.5 4.40002 5.4 4.40002 4C4.40002 2.6 5.50002 1.5 6.90002 1.5ZM6.90002 0C4.70002 0 2.90002 1.8 2.90002 4C2.90002 6.2 4.70002 8 6.90002 8C9.10002 8 10.9 6.2 10.9 4C10.9 1.8 9.10002 0 6.90002 0Z" />
      <path d="M1.5 16V13C1.5 11.6 2.6 10.5 4 10.5H10C11.4 10.5 12.5 11.6 12.5 13V16H14V13C14 10.8 12.2 9 10 9H4C1.8 9 0 10.8 0 13V16H1.5Z" />
    </g>
  </symbol>
  <symbol viewBox="0 0 18 9" id="link">
    <svg width="18" height="9" viewBox="0 0 18 9" fill="none" xmlns="http://www.w3.org/2000/svg">
      <path d="M6.70005 8.29995H4.50005C2.40005 8.29995 0.800049 6.59995 0.800049 4.49995C0.800049 2.39995 2.50005 0.699951 4.50005 0.699951H6.70005" stroke="#444444" stroke-width="1.5" stroke-linecap="round" stroke-linejoin="round"/>
      <path d="M11.3 0.800049H13.5C15.6 0.800049 17.2 2.50005 17.2 4.60005C17.2 6.70005 15.5 8.40005 13.5 8.40005H11.3" stroke="#444444" stroke-width="1.5" stroke-linecap="round" stroke-linejoin="round"/>
      <path d="M6 4.5H12" stroke="#444444" stroke-width="1.5" stroke-linecap="round" stroke-linejoin="round"/>
    </svg>
  </symbol>
  <symbol viewBox="0 0 17 17" id="edit">
    <path d="M16.4 2.7L14.3 0.6C13.5 -0.2 12.2 -0.2 11.5 0.6L0.7 11.4C0.6 11.5 0.6 11.6 0.5 11.7L0 16.4C0 16.4 0 16.4 0 16.5C0 16.7 0.3 17 0.6 17H0.7L5.3 16.5C5.4 16.5 5.5 16.4 5.6 16.3L16.4 5.5C17.2 4.7 17.2 3.4 16.4 2.7ZM4.9 15.4L1.2 15.8L1.6 12.1L10.3 3.4L13.6 6.7L4.9 15.4ZM15.6 4.7L14.5 5.8L11.2 2.5L12.3 1.4C12.6 1.1 13.2 1.1 13.6 1.4L15.7 3.5C15.9 3.8 15.9 4.4 15.6 4.7Z"  />
    <path d="M9.90005 6.30005L4.80005 11.4L5.60005 12.2L10.7 7.10005L9.90005 6.30005Z"  />
  </symbol>
  <symbol viewBox="0 0 16 16" id="delete">
    <path d="M15.3 2.30005H13.1H2.8H0.6C0.3 2.30005 0 2.50005 0 2.80005C0 3.10005 0.3 3.40005 0.6 3.40005H2.3V15.4C2.3 15.7 2.6 16 2.9 16H13.1C13.4 16 13.7 15.7 13.7 15.4V3.40005H15.4C15.7 3.40005 16 3.10005 16 2.80005C16 2.50005 15.6 2.30005 15.3 2.30005ZM12.5 14.8H3.4V3.40005H12.5V14.8Z"  />
    <path d="M6.19995 1.2H9.59995C9.89995 1.2 10.2 0.9 10.2 0.6C10.2 0.3 9.99995 0 9.69995 0H6.19995C5.89995 0 5.69995 0.3 5.69995 0.6C5.69995 0.9 5.89995 1.2 6.19995 1.2Z"  />
    <path d="M6.19998 12C6.49998 12 6.79998 11.7 6.79998 11.4V5.69998C6.79998 5.39998 6.49998 5.09998 6.19998 5.09998C5.89998 5.09998 5.59998 5.39998 5.59998 5.69998V11.4C5.69998 11.7 5.89998 12 6.19998 12Z"  />
    <path d="M9.69998 12C9.99998 12 10.3 11.7 10.3 11.4V5.69998C10.3 5.39998 9.99998 5.09998 9.69998 5.09998C9.39998 5.09998 9.09998 5.49998 9.09998 5.69998V11.4C9.09998 11.7 9.29998 12 9.69998 12Z"  />
  </symbol>
  <symbol viewBox="0 0 26 26" id="plus">
    <path d="M26 12H14V0H12V12H0V14H12V26H14V14H26V12Z" />
  </symbol>
  <symbol viewBox="0 0 13 15" id="copy">
    <path d="M11.5 4.5V13.5H4.5V4.5H11.5ZM12 3H4C3.4 3 3 3.4 3 4V14C3 14.6 3.4 15 4 15H12C12.6 15 13 14.6 13 14V4C13 3.4 12.6 3 12 3Z"/>
    <path d="M1 0C0.4 0 0 0.4 0 1V11H1.5V1.5H9V0H1Z"/>
  </symbol>
  <symbol viewBox="0 0 13 13" id="export">
    <path d="M10.8643 13H2.13571C0.928571 13 0 12.0714 0 10.8643V2.13571C0 0.928571 0.928571 0 2.13571 0H5.01429C5.38571 0 5.75714 0.278571 5.75714 0.742857C5.75714 1.20714 5.47857 1.48571 5.01429 1.48571H2.13571C1.76429 1.48571 1.39286 1.76429 1.39286 2.22857V10.8643C1.39286 11.2357 1.67143 11.6071 2.13571 11.6071H10.7714C11.1429 11.6071 11.5143 11.3286 11.5143 10.8643V7.98571C11.5143 7.61429 11.7929 7.24286 12.2571 7.24286C12.6286 7.24286 13 7.52143 13 7.98571V10.8643C13 12.0714 12.0714 13 10.8643 13Z" />
    <path d="M8.63573 0C8.35716 0 8.07859 0.185714 7.98573 0.464286C7.89288 0.742857 7.98573 1.02143 8.17145 1.20714L9.47145 2.50714L5.94288 6.03571C5.6643 6.31429 5.6643 6.77857 5.94288 7.05714C6.22145 7.33571 6.68573 7.33571 6.9643 7.05714L10.4 3.62143L11.7 4.92143C11.7929 5.01429 11.9786 5.10714 12.2572 5.10714C12.35 5.10714 12.4429 5.10714 12.5357 5.01429C12.8143 4.92143 13 4.64286 13 4.36429V0H8.63573Z" />
  </symbol>
</svg>
