<svg fill="none" xmlns="http://www.w3.org/2000/svg">
  <symbol viewBox="0 0 26 26" id="agency">
    <path d="M21 20H5V22H21V20Z" fill="#73C949"/>
    <path d="M21 10.5L19.6 9.1L14 14.7V4H12V14.7L6.4 9.1L5 10.5L13 18.5L21 10.5Z" fill="#73C949"/>
  </symbol>
  <symbol viewBox="0 0 26 26" id="fee">
    <path d="M21 20H5V22H21V20Z" fill="#73C949"/>
    <path d="M21 10.5L19.6 9.1L14 14.7V4H12V14.7L6.4 9.1L5 10.5L13 18.5L21 10.5Z" fill="#73C949"/>
  </symbol>
  <symbol viewBox="0 0 26 26" id="anyType">
    <path d="M21 20H5V22H21V20Z" fill="#73C949"/>
    <path d="M21 10.5L19.6 9.1L14 14.7V4H12V14.7L6.4 9.1L5 10.5L13 18.5L21 10.5Z" fill="#73C949"/>
  </symbol>
  <symbol viewBox="0 0 26 26" id="refund">
    <path d="M21 20H5V22H21V20Z" fill="#FF744C"/>
    <path d="M5 12L6.4 13.4L12 7.8V18.5H14V7.8L19.6 13.4L21 12L13 4L5 12Z" fill="#FF744C"/>
  </symbol>
  <!--_____ Типы финансовых операций _____-->
  <symbol viewBox="0 0 26 26" id="agency-designer">
    <path d="M21 20H5V22H21V20Z" fill="#73C949"/>
    <path d="M21 10.5L19.6 9.1L14 14.7V4H12V14.7L6.4 9.1L5 10.5L13 18.5L21 10.5Z" fill="#73C949"/>
  </symbol>
  <symbol viewBox="0 0 26 26" id="transfer-designer">
    <g opacity="0.3">
      <path d="M18 5L16.6 6.4L22.2 12H3.8L9.4 6.4L8 5L0 13L8 21L9.4 19.6L3.8 14H22.2L16.6 19.6L18 21L26 13L18 5Z" fill="black"/>
    </g>
  </symbol>
  <symbol viewBox="0 0 26 26" id="fee-designer">
    <path d="M21 20H5V22H21V20Z" fill="#73C949"/>
    <path d="M21 10.5L19.6 9.1L14 14.7V4H12V14.7L6.4 9.1L5 10.5L13 18.5L21 10.5Z" fill="#73C949"/>
  </symbol>
  <symbol viewBox="0 0 26 26" id="refund-designer">
    <path d="M21 20H5V22H21V20Z" fill="#FF744C"/>
    <path d="M5 12L6.4 13.4L12 7.8V18.5H14V7.8L19.6 13.4L21 12L13 4L5 12Z" fill="#FF744C"/>
  </symbol>
  <symbol viewBox="0 0 26 26" id="agency-contractor">
    <path d="M21 20H5V22H21V20Z" fill="#FF744C"/>
    <path d="M5 12L6.4 13.4L12 7.8V18.5H14V7.8L19.6 13.4L21 12L13 4L5 12Z" fill="#FF744C"/>
  </symbol>
  <symbol viewBox="0 0 26 26" id="transfer-contractor">
    <path d="M21 20H5V22H21V20Z" fill="#73C949"/>
    <path d="M21 10.5L19.6 9.1L14 14.7V4H12V14.7L6.4 9.1L5 10.5L13 18.5L21 10.5Z" fill="#73C949"/>
  </symbol>

  <symbol viewBox="0 0 26 26" id="refill">
    <path d="M21 20H5V22H21V20Z" fill="#73C949"/>
    <path d="M21 10.5L19.6 9.1L14 14.7V4H12V14.7L6.4 9.1L5 10.5L13 18.5L21 10.5Z" fill="#73C949"/>
  </symbol>
  <symbol viewBox="0 0 26 26" id="debit">
    <path d="M21 20H5V22H21V20Z" fill="#FF744C"/>
    <path d="M5 12L6.4 13.4L12 7.8V18.5H14V7.8L19.6 13.4L21 12L13 4L5 12Z" fill="#FF744C"/>
  </symbol>
  <!--_____/Типы финансовых операций _____-->
  <symbol viewBox="0 0 7 7" id="tableArrrow">
    <path d="M5.4 1L3.5 4.8L1.6 1H5.4ZM7 0H0L3.5 7L7 0Z"/>
  </symbol>
  <symbol viewBox="0 0 16 16" id="smaile">
    <path d="M7.99993 16.0001C3.79993 16.1001 -0.100071 12.3001 -7.08351e-05 7.90005C0.0999292 3.70005 3.69993 0.100051 7.89993 5.12352e-05C12.2999 -0.0999488 15.9999 3.80005 15.9999 8.00005C15.9999 12.3001 12.2999 16.1001 7.99993 16.0001ZM1.19993 8.00005C1.29993 11.9001 4.09993 14.8001 7.99993 14.8001C11.8999 14.8001 14.7999 11.9001 14.7999 8.00005C14.7999 4.10005 11.8999 1.20005 7.99993 1.20005C4.09993 1.20005 1.29993 4.10005 1.19993 8.00005Z" />
    <path d="M8.09978 12C6.49978 12 5.39978 11.2 4.59978 10C4.49978 9.8 4.59978 9.4 4.79978 9.2C5.09978 9 5.39978 9.1 5.59978 9.4C5.69978 9.5 5.79978 9.7 5.89978 9.8C6.99978 11.2 8.99978 11.2 9.99978 9.8C10.0998 9.7 10.1998 9.5 10.2998 9.4C10.4998 9.1 10.8998 9.1 11.0998 9.3C11.3998 9.5 11.3998 9.8 11.1998 10.1C10.4998 11.3 9.49978 12 8.09978 12Z" />
    <path d="M5.49961 6.9001C4.89961 6.9001 4.59961 6.5001 4.59961 6.0001C4.59961 5.5001 4.89961 5.1001 5.49961 5.1001C5.99961 5.1001 6.39961 5.4001 6.39961 5.9001C6.29961 6.5001 5.99961 6.9001 5.49961 6.9001Z" />
    <path d="M9.7002 6.0001C9.7002 5.5001 10.1002 5.1001 10.6002 5.1001C11.1002 5.1001 11.5002 5.5001 11.5002 6.0001C11.5002 6.5001 11.1002 6.9001 10.6002 6.9001C10.0002 6.9001 9.7002 6.5001 9.7002 6.0001Z" />
  </symbol>
  <symbol viewBox="0 0 16 16" id="smaile-active">
    <path d="M7.99993 16.0001C3.79993 16.1001 -0.100071 12.3001 -7.08351e-05 7.90005C0.0999292 3.70005 3.69993 0.100051 7.89993 5.12352e-05C12.2999 -0.0999488 15.9999 3.80005 15.9999 8.00005C15.9999 12.3001 12.2999 16.1001 7.99993 16.0001ZM1.19993 8.00005C1.29993 11.9001 4.09993 14.8001 7.99993 14.8001C11.8999 14.8001 14.7999 11.9001 14.7999 8.00005C14.7999 4.10005 11.8999 1.20005 7.99993 1.20005C4.09993 1.20005 1.29993 4.10005 1.19993 8.00005Z" />
    <path d="M8.09978 9.09595C6.49978 9.09595 5.39978 9.89595 4.59978 11.0959C4.49978 11.2959 4.59978 11.6959 4.79978 11.8959C5.09978 12.0959 5.39978 11.9959 5.59978 11.6959C5.69978 11.5959 5.79978 11.3959 5.89978 11.2959C6.99978 9.89595 8.99978 9.89595 9.99978 11.2959C10.0998 11.3959 10.1998 11.5959 10.2998 11.6959C10.4998 11.9959 10.8998 11.9959 11.0998 11.7959C11.3998 11.5959 11.3998 11.2959 11.1998 10.9959C10.4998 9.79595 9.49978 9.09595 8.09978 9.09595Z" />
    <path d="M5.49961 6.9001C4.89961 6.9001 4.59961 6.5001 4.59961 6.0001C4.59961 5.5001 4.89961 5.1001 5.49961 5.1001C5.99961 5.1001 6.39961 5.4001 6.39961 5.9001C6.29961 6.5001 5.99961 6.9001 5.49961 6.9001Z" />
    <path d="M9.7002 6.0001C9.7002 5.5001 10.1002 5.1001 10.6002 5.1001C11.1002 5.1001 11.5002 5.5001 11.5002 6.0001C11.5002 6.5001 11.1002 6.9001 10.6002 6.9001C10.0002 6.9001 9.7002 6.5001 9.7002 6.0001Z" />
  </symbol>
  <symbol viewBox="0 0 26 4" id="action">
    <path d="M2 4C3.10457 4 4 3.10457 4 2C4 0.89543 3.10457 0 2 0C0.89543 0 0 0.89543 0 2C0 3.10457 0.89543 4 2 4Z" fill="black"/>
    <path d="M24 4C25.1046 4 26 3.10457 26 2C26 0.89543 25.1046 0 24 0C22.8954 0 22 0.89543 22 2C22 3.10457 22.8954 4 24 4Z" fill="black"/>
    <path d="M13 4C14.1046 4 15 3.10457 15 2C15 0.89543 14.1046 0 13 0C11.8954 0 11 0.89543 11 2C11 3.10457 11.8954 4 13 4Z" fill="black"/>
  </symbol>
  <symbol viewBox="0 0 19 19" id="check">
    <circle cx="9.5" cy="9.5" r="9.5" fill="#73C949"/>
    <path d="M14 5L7.8 11L5 8.2V11.2L7.8 14L14 8V5Z" fill="white"/>
  </symbol>
  <symbol viewBox="0 0 14 14" id="close">
    <g opacity="0.3">
      <path d="M14 1.3L12.7 0L7 5.7L1.3 0L0 1.3L5.7 7L0 12.7L1.3 14L7 8.3L12.7 14L14 12.7L8.3 7L14 1.3Z" fill="black"/>
    </g>
  </symbol>
  <symbol viewBox="0 0 36 36" id="arrow">
    <rect width="36" height="36" rx="15" fill="white" fill-opacity="0"/>
    <path d="M26 17L24.6 15.6L19 21.2V10H17V21.2L11.4 15.6L10 17L18 25L26 17Z" fill="black" fill-opacity="0.3"/>
  </symbol>
  <symbol viewBox="0 0 26 26" id="warning">
    <path d="M14 19L14 11L12 11L12 19L14 19Z"/>
    <path d="M14 7H12V9H14V7Z"/>
    <defs>
    <clipPath id="clip0_0_1">
    <rect width="2" height="12" fill="white" transform="translate(12 7)"/>
    </clipPath>
    </defs>
  </symbol>
  <symbol viewBox="0 0 24 10" id="tooltip">
    <path d="M24 10H0L12 0L24 10Z" fill="#333333"/>
  </symbol>
  <symbol viewBox="0 0 17 17" id="tile1">
    <path d="M7 1V7H1V1H7ZM8 0H0V8H8V0Z"/>
    <path d="M16 1V7H10V1H16ZM17 0H9V8H17V0Z"/>
    <path d="M7 10V16H1V10H7ZM8 9H0V17H8V9Z"/>
    <path d="M16 10V16H10V10H16ZM17 9H9V17H17V9Z"/>
  </symbol>
  <symbol viewBox="0 0 17 17" id="tile2">
    <path d="M4 1V7H1V1H4ZM5 0H0V8H5V0Z"/>
    <path d="M10 1V7H7V1H10ZM11 0H6V8H11V0Z"/>
    <path d="M16 1V7H13V1H16ZM17 0H12V8H17V0Z"/>
    <path d="M4 10V16H1V10H4ZM5 9H0V17H5V9Z"/>
    <path d="M10 10V16H7V10H10ZM11 9H6V17H11V9Z"/>
    <path d="M16 10V16H13V10H16ZM17 9H12V17H17V9Z"/>
  </symbol>
  <symbol viewBox="0 0 17 17" id="tile3">
    <path d="M17 0H0V1H17V0Z"/>
    <path d="M17 4H0V5H17V4Z"/>
    <path d="M17 8H0V9H17V8Z"/>
    <path d="M17 12H0V13H17V12Z"/>
    <path d="M17 16H0V17H17V16Z"/>
  </symbol>
  <symbol viewBox="0 0 16 14" id="photo">
    <path d="M15 2H12.1L10.4 0H5.6L3.9 2H1C0.4 2 0 2.4 0 3V13C0 13.6 0.4 14 1 14H15C15.6 14 16 13.6 16 13V3C16 2.4 15.6 2 15 2ZM15 13H1V3H4.3L6 1H9.9L11.6 3H15V13Z" />
    <path d="M8 4.09998C6.1 4.09998 4.5 5.69998 4.5 7.59998C4.5 9.49998 6.1 11.1 8 11.1C9.9 11.1 11.5 9.49998 11.5 7.59998C11.5 5.69998 9.9 4.09998 8 4.09998ZM8 10.1C6.6 10.1 5.5 8.99998 5.5 7.59998C5.5 6.19998 6.6 5.09998 8 5.09998C9.4 5.09998 10.5 6.19998 10.5 7.59998C10.5 8.99998 9.4 10.1 8 10.1Z" />
  </symbol>
  <symbol viewBox="0 0 13 13" id="share">
    <path d="M7.69997 8.90002C6.59997 8.90002 5.49997 8.40002 4.79997 7.50002C4.59997 7.20002 4.69997 6.80002 4.99997 6.60002C5.29997 6.40002 5.59997 6.50002 5.79997 6.70002C6.59997 7.70002 8.09998 8.00002 9.09998 7.20002C9.19998 7.10002 9.29997 7.10002 9.39997 7.00002L11.2 5.20002C12.1 4.30002 12.1 2.80002 11.1 1.80002C10.2 1.00002 8.69997 1.00002 7.79997 1.90002L6.79997 2.90002C6.59997 3.10002 6.19997 3.10002 5.99997 2.90002C5.69997 2.60002 5.69997 2.30002 5.89997 2.00002L6.89997 1.00002C8.29997 -0.299976 10.5 -0.299976 11.9 1.00002C13.3 2.40002 13.4 4.60002 12 6.00002L10.2 7.80002C10.1 8.00002 9.99997 8.10002 9.79997 8.20002C9.19998 8.60002 8.39997 8.90002 7.69997 8.90002Z" />
    <path d="M3.6 13C2.7 13 1.8 12.7 1.1 12C-0.300005 10.6 -0.400005 8.39998 0.999995 6.99998L2.8 5.19998C2.9 4.99998 3 4.89998 3.2 4.79998C3.9 4.29998 4.9 3.99998 5.8 4.19998C6.7 4.29998 7.6 4.79998 8.1 5.59998C8.4 5.79998 8.3 6.19998 8 6.39998C7.8 6.59998 7.39999 6.49998 7.2 6.29998C6.79999 5.79998 6.29999 5.39998 5.6 5.29998C5 5.19998 4.4 5.39998 3.9 5.79998C3.8 5.89998 3.7 5.89998 3.6 5.99998L1.8 7.79998C0.899995 8.69998 0.999995 10.2 1.9 11.1C2.8 12 4.29999 12 5.2 11.1L6.2 10.1C6.39999 9.89998 6.8 9.89998 7 10.1C7.2 10.3 7.2 10.7 7 10.9L6 11.9C5.3 12.7 4.5 13 3.6 13Z" />
  </symbol>
  <symbol viewBox="0 0 20 17" id="image">
    <path d="M5.19999 13C6.59999 13 7.99999 13 9.49999 13C9.89999 13 10.4 13 10.8 13C11.8 13 12.8 13 13.9 13C14.4 13 14.7 12.6 14.5 12.2C13.8 10.7 13 9.2 12.3 7.7C12.1 7.3 11.7 7.3 11.4 7.5C11.2 7.6 11.1 7.8 10.9 7.9C10.7 8.1 10.7 8.1 10.6 7.9C10.1 7.1 9.59999 6.2 9.09999 5.4C8.89999 5.1 8.69999 5 8.39999 5C8.09999 5 7.89999 5.2 7.69999 5.4C7.69999 5.5 7.59999 5.6 7.59999 5.7C6.59999 7.8 5.59999 9.9 4.59999 12.1C4.29999 12.6 4.59999 13 5.19999 13Z" />
    <path d="M14.5 7C15.3 7 16 6.3 16 5.5C16 4.6 15.3 4 14.5 4C13.6 4 13 4.7 13 5.5C13 6.3 13.7 7 14.5 7Z" />
    <path d="M19 0H1C0.4 0 0 0.4 0 1V16C0 16.6 0.4 17 1 17H19C19.6 17 20 16.6 20 16V1C20 0.4 19.6 0 19 0ZM18 15H2V2H18V15Z" />
  </symbol>
  <symbol viewBox="0 0 17 17" id="copy2">
    <path d="M17 8.5C17 3.9 13.3 0.2 8.8 0H8.7H8.6C3.8 0 0 3.8 0 8.5C0 13.2 3.8 17 8.5 17H8.6H8.7C13.3 16.8 17 13.1 17 8.5ZM8.6 15.8C8.3 15.8 7.8 15.3 7.3 14C7 13.3 6.8 12.5 6.7 11.7H10.6C10.5 12.6 10.2 13.4 10 14C9.5 15.3 9 15.8 8.6 15.8C8.7 15.8 8.7 15.8 8.6 15.8ZM8.7 1.2C9 1.2 9.5 1.7 10 2.9C10.3 3.6 10.5 4.4 10.6 5.2H6.7C6.8 4.3 7.1 3.5 7.3 2.9C7.8 1.7 8.4 1.2 8.7 1.2ZM6.6 10.5C6.5 9.8 6.5 9.2 6.5 8.5C6.5 7.8 6.5 7.1 6.6 6.5H10.8C10.9 7.2 10.9 7.8 10.9 8.5C10.9 9.2 10.9 9.9 10.8 10.5H6.6ZM11.8 5.3C11.5 3.7 11.1 2.4 10.6 1.5C12.6 2.1 14.2 3.5 15.1 5.3H11.8ZM5.5 5.3H1.9C2.9 3.4 4.7 1.9 6.8 1.4C6.3 2.3 5.8 3.7 5.5 5.3ZM5.4 6.5C5.3 7.2 5.3 7.8 5.3 8.5C5.3 9.2 5.3 9.9 5.4 10.5H1.5C1.3 9.9 1.2 9.2 1.2 8.5C1.2 7.8 1.3 7.1 1.5 6.5H5.4ZM5.5 11.7C5.8 13.3 6.2 14.7 6.8 15.6C4.6 15.1 2.8 13.6 1.9 11.7H5.5ZM11.8 11.7H15.1C14.2 13.5 12.6 14.9 10.6 15.5C11.1 14.6 11.5 13.3 11.8 11.7ZM15.5 10.5H12C12 9.9 12 9.2 12 8.5C12 7.8 12 7.1 11.9 6.5H15.5C15.7 7.2 15.8 7.8 15.8 8.5C15.8 9.2 15.7 9.9 15.5 10.5Z" />
  </symbol>
  <symbol viewBox="0 0 12 6" id="miniArrowe">
    <path d="M6.65455 5.79998L11.7818 1.29998C12.1091 0.999976 12.1091 0.499976 11.7818 0.199976C11.4545 -0.100024 10.9091 -0.100024 10.5818 0.199976L6 4.19998L1.41818 0.199976C1.09091 -0.100024 0.545455 -0.100024 0.218182 0.199976C0.109091 0.399976 0 0.599976 0 0.799976C0 0.999976 0.109091 1.19998 0.218182 1.29998L5.34545 5.79998C5.78182 6.09998 6.21818 6.09998 6.65455 5.79998Z" />
  </symbol>
</svg>
