<svg width="20" height="20" viewBox="0 0 20 20" fill="none" xmlns="http://www.w3.org/2000/svg">
<g clip-path="url(#clip0_8280_9457)">
<path d="M20 7.69531V12.3047C19.4469 12.4395 18.8984 12.6039 18.3387 12.6988C17.9395 12.7668 17.6984 12.9367 17.5965 13.3309C17.5641 13.4574 17.5434 13.5531 17.6172 13.673C17.9445 14.2043 18.2582 14.7437 18.5848 15.2746C18.6559 15.3918 18.6465 15.4602 18.5492 15.5562C17.5482 16.5513 16.5507 17.5497 15.5566 18.5516C15.4512 18.6582 15.3762 18.6512 15.259 18.5793C14.7328 18.2563 14.202 17.9414 13.6715 17.6254C13.6121 17.5902 13.5543 17.523 13.4789 17.5508C13.2727 17.6289 13.0582 17.6977 12.8719 17.8109C12.7547 17.8812 12.7719 18.0563 12.741 18.1863C12.5977 18.7914 12.4168 19.3871 12.3035 19.9992H7.69531C7.56172 19.4523 7.39922 18.9086 7.30469 18.3539C7.23359 17.9426 7.05937 17.6871 6.64414 17.591C6.52891 17.5645 6.44375 17.5484 6.33789 17.6133C5.80547 17.9395 5.26641 18.2551 4.73633 18.5828C4.61406 18.6582 4.54102 18.6484 4.43789 18.5461C3.44831 17.5484 2.45417 16.5542 1.45547 15.5633C1.35586 15.4645 1.33828 15.3926 1.41641 15.2656C1.7457 14.7355 2.06055 14.1957 2.38516 13.6641C2.44883 13.5594 2.46328 13.4687 2.4043 13.3566C2.34188 13.228 2.28786 13.0954 2.24258 12.9598C2.23151 12.9224 2.21064 12.8887 2.18213 12.8621C2.15362 12.8355 2.11852 12.817 2.08047 12.8086L0 12.3047V7.69531C0.546875 7.56289 1.09063 7.40234 1.64492 7.30742C2.0582 7.23633 2.30586 7.05117 2.40742 6.64336C2.43633 6.52617 2.44648 6.44102 2.38242 6.33633C2.06016 5.80898 1.74805 5.27578 1.42383 4.75C1.3457 4.62461 1.34336 4.54687 1.45547 4.4375C2.45391 3.44792 3.44792 2.45391 4.4375 1.45547C4.53984 1.35234 4.61406 1.34453 4.73555 1.41953C5.26719 1.74688 5.8043 2.06563 6.34023 2.38555C6.40469 2.42461 6.46328 2.48242 6.55391 2.44258C6.72656 2.36719 6.90156 2.29688 7.07656 2.22734C7.10641 2.21419 7.13243 2.19366 7.15217 2.1677C7.17192 2.14174 7.18475 2.11118 7.18945 2.07891C7.35898 1.38542 7.5276 0.692448 7.69531 0H12.3047C12.4035 0.55625 12.5953 1.09141 12.6906 1.64687C12.7586 2.04414 12.925 2.30469 13.3352 2.40273C13.4645 2.43359 13.5605 2.44844 13.6781 2.37617C14.2105 2.05 14.7496 1.73477 15.282 1.4082C15.3914 1.34102 15.4582 1.35078 15.5477 1.44063C16.5484 2.4474 17.5521 3.45156 18.5586 4.45312C18.6504 4.54453 18.6551 4.6125 18.5895 4.71953C18.3305 5.14062 18.1102 5.58945 17.8172 5.98437C17.5527 6.34062 17.525 6.66211 17.7531 7.02461C17.7587 7.03643 17.7627 7.0489 17.7652 7.06172C17.7746 7.09306 17.7923 7.1213 17.8163 7.1435C17.8404 7.16569 17.87 7.18102 17.902 7.18789C18.6016 7.35391 19.2938 7.55391 20 7.69531ZM10 11.6945C10.5469 11.6945 11.0938 11.698 11.6406 11.6945C13.0816 11.6836 14.1703 12.8973 14.1359 14.1777C14.1211 14.7305 14.1359 15.2844 14.1316 15.8375C14.1316 15.9609 14.1656 16.0437 14.2773 16.107C14.532 16.2516 14.7852 16.4016 15.0289 16.5613C15.1461 16.6395 15.2203 16.6141 15.3129 16.5195C15.709 16.1148 16.1096 15.7146 16.5148 15.3188C16.6187 15.2172 16.6254 15.1398 16.5492 15.0176C16.2809 14.5879 16.0266 14.148 15.7609 13.7156C15.6992 13.6152 15.6938 13.5352 15.7535 13.4301C16.0747 12.8719 16.3219 12.2743 16.4891 11.6523C16.4979 11.6018 16.5225 11.5553 16.5593 11.5196C16.5961 11.4839 16.6433 11.4608 16.6941 11.4535C17.1922 11.3363 17.6859 11.2 18.1844 11.0844C18.3297 11.0508 18.373 10.9828 18.3715 10.8438C18.3668 10.284 18.3656 9.72383 18.3715 9.16406C18.3734 9.01172 18.3152 8.94883 18.1684 8.91445C17.6758 8.79922 17.1871 8.66641 16.6949 8.54844C16.5867 8.52266 16.5262 8.47852 16.4961 8.36875C16.3273 7.74026 16.0778 7.13628 15.7539 6.57188C15.6937 6.46758 15.702 6.38867 15.7645 6.2875C16.0344 5.85 16.2914 5.40508 16.5613 4.96797C16.6289 4.8582 16.6191 4.78906 16.5277 4.69961C16.1178 4.29857 15.7128 3.89349 15.3125 3.48437C15.209 3.37812 15.1312 3.38008 15.0109 3.45508C14.5863 3.72031 14.1516 3.97109 13.7262 4.23398C13.6203 4.29961 13.5352 4.3082 13.4234 4.24375C12.8651 3.92308 12.2677 3.67573 11.6461 3.50781C11.5289 3.47617 11.4777 3.41875 11.4508 3.30117C11.3336 2.80234 11.1965 2.30742 11.0797 1.8082C11.0473 1.67031 10.9812 1.63047 10.8508 1.63125C10.2844 1.63516 9.71797 1.63633 9.15195 1.63125C9.00547 1.63125 8.94922 1.6875 8.91758 1.82656C8.80039 2.31875 8.66875 2.80664 8.55156 3.29844C8.52422 3.41563 8.47656 3.47969 8.35938 3.51094C7.73081 3.67949 7.1268 3.92898 6.5625 4.25312C6.46445 4.30898 6.38945 4.30156 6.29492 4.24336C5.85703 3.975 5.41211 3.71758 4.97539 3.44648C4.8582 3.37383 4.78594 3.38438 4.69141 3.48125C4.28984 3.88932 3.8849 4.29362 3.47656 4.69414C3.37695 4.79102 3.37539 4.86484 3.44648 4.97891C3.71328 5.40859 3.96641 5.85 4.23438 6.28086C4.30195 6.39023 4.30469 6.47617 4.24141 6.5832C3.92338 7.13545 3.67749 7.72621 3.50977 8.34102C3.47617 8.46172 3.41875 8.52266 3.29219 8.55234C2.79336 8.66953 2.29883 8.80586 1.8 8.92383C1.67266 8.95391 1.6293 9.01172 1.63008 9.13672C1.63398 9.70964 1.63398 10.2826 1.63008 10.8555C1.63008 10.9906 1.67852 11.0477 1.81211 11.0793C2.31094 11.1965 2.80547 11.3316 3.30391 11.4504C3.42109 11.4785 3.47734 11.5355 3.50898 11.6496C3.67632 12.2714 3.9237 12.8689 4.24492 13.427C4.30508 13.5293 4.30117 13.6102 4.23828 13.7121C3.9668 14.1496 3.7082 14.5941 3.4375 15.0312C3.3707 15.1391 3.375 15.2098 3.46758 15.3004C3.88607 15.7105 4.30026 16.1247 4.71016 16.543C4.78828 16.6238 4.85625 16.6285 4.94844 16.5707C5.19648 16.4145 5.44531 16.2605 5.70078 16.118C5.82539 16.0484 5.87031 15.9617 5.86914 15.8211C5.86328 15.2613 5.87773 14.7012 5.86563 14.1414C5.83867 12.9066 6.91328 11.6914 8.33711 11.6945C8.8918 11.6961 9.44492 11.6949 10 11.6945ZM10 13.3066C9.44688 13.3066 8.89375 13.302 8.34102 13.3066C7.87734 13.3117 7.49297 13.668 7.48867 14.1008C7.48164 14.7512 7.48867 15.402 7.48438 16.0539C7.48438 16.1641 7.52344 16.2215 7.62344 16.2535C7.85234 16.3258 8.07734 16.4098 8.30898 16.4738C8.45 16.5129 8.52344 16.575 8.55781 16.7266C8.66797 17.2133 8.80234 17.6941 8.91719 18.1797C8.95 18.3184 9.01055 18.375 9.15508 18.3719C9.72109 18.3656 10.2879 18.3668 10.8531 18.3719C10.9852 18.3719 11.0484 18.3301 11.0801 18.1938C11.1973 17.6949 11.3336 17.2008 11.4512 16.702C11.4812 16.5746 11.5418 16.5207 11.6637 16.4871C11.8945 16.4234 12.1184 16.334 12.3484 16.2664C12.4852 16.2273 12.5242 16.1492 12.5223 16.0105C12.5148 15.4184 12.5199 14.8262 12.5191 14.2344C12.5191 13.6574 12.1758 13.3105 11.6004 13.3074C11.0645 13.3047 10.5309 13.3066 9.99727 13.3066H10Z" fill="#CCCCCC"/>
<path d="M10.0117 5.8707C11.2195 5.84101 12.4813 6.82382 12.4727 8.34218C12.4652 9.88241 11.1941 10.8301 9.95898 10.8098C8.75313 10.7894 7.52813 9.83945 7.52539 8.34023C7.52422 6.78788 8.82539 5.82695 10.0117 5.8707ZM10.0117 7.48398C9.89779 7.4819 9.78458 7.50251 9.67868 7.5446C9.57279 7.58669 9.47632 7.64942 9.3949 7.72913C9.31347 7.80885 9.24871 7.90396 9.20439 8.00894C9.16007 8.11392 9.13706 8.22667 9.13672 8.34062C9.13672 8.80038 9.53672 9.19413 10.0004 9.19413C10.2269 9.19129 10.4435 9.10094 10.6048 8.94198C10.7662 8.78303 10.8598 8.56781 10.866 8.3414C10.875 7.88046 10.4813 7.48554 10.0109 7.48398H10.0117Z" fill="#CCCCCC"/>
</g>
<defs>
<clipPath id="clip0_8280_9457">
<rect width="20" height="20" fill="white"/>
</clipPath>
</defs>
</svg>
