<svg width="14" height="20" viewBox="0 0 14 20" fill="none" xmlns="http://www.w3.org/2000/svg">
<path d="M11.9996 18C9.19961 20.7 4.79961 20.7 2.09961 17.9C0.799609 16.6 0.0996094 14.8 0.0996094 13V5C0.0996094 2.2 2.29961 0 5.09961 0C7.89961 0 10.0996 2.2 10.0996 5V13C10.0996 14.7 8.79961 16 7.09961 16C6.29961 16 5.49961 15.7 4.99961 15.1C4.29961 14.6 3.99961 13.8 3.99961 13V5C3.99961 4.4 4.39961 4 4.99961 4C5.59961 4 5.99961 4.4 5.99961 5V13C5.99961 13.6 6.39961 14 6.99961 14C7.59961 14 7.99961 13.6 7.99961 13V5C7.99961 3.4 6.69961 2 4.99961 2C3.39961 2 1.99961 3.3 1.99961 5V13C1.99961 15.7 4.19961 18 6.99961 18C9.79961 18 11.9996 15.8 11.9996 13V2C11.9996 1.4 12.3996 1 12.9996 1C13.5996 1 13.9996 1.4 13.9996 2V13C13.9996 14.8 13.2996 16.6 11.9996 18Z" fill="rgba(0,0,0,0.3)"/>
</svg>
