<svg width="38" height="32" viewBox="0 0 38 32" fill="none" xmlns="http://www.w3.org/2000/svg">
<path d="M24.2 2L29.6 7.4C30 7.8 30.5 8 31 8H36V30H2V8H7C7.5 8 8 7.8 8.4 7.4L13.8 2H24.2ZM25 0H13L7 6H2C0.9 6 0 6.9 0 8V30C0 31.1 0.9 32 2 32H36C37.1 32 38 31.1 38 30V8C38 6.9 37.1 6 36 6H31L25 0Z" fill="black" opacity="0.2"/>
<path d="M19 11C22.3 11 25 13.7 25 17C25 20.3 22.3 23 19 23C15.7 23 13 20.3 13 17C13 13.7 15.7 11 19 11ZM19 9C14.6 9 11 12.6 11 17C11 21.4 14.6 25 19 25C23.4 25 27 21.4 27 17C27 12.6 23.4 9 19 9Z" fill="black" opacity="0.2"/>
</svg>
