<svg width="30" height="30" viewBox="0 0 30 30" fill="none" xmlns="http://www.w3.org/2000/svg">
<path d="M15.0002 6.25C17.0211 6.25 18.8767 6.94191 20.3581 8.09258L24.9045 3.75511C22.2611 1.42494 18.801 0 15.0002 0C9.24066 0 4.246 3.24989 1.73242 8.01231L6.78796 12.0035C8.01263 8.64922 11.222 6.25 15.0002 6.25Z" fill="#F44336"/>
<path d="M29.8701 16.8773C29.9482 16.2627 30 15.6358 30 15C30 13.9277 29.8829 12.8835 29.669 11.875H15V18.125H23.1078C22.4519 19.8297 21.284 21.2722 19.7975 22.2743L24.8718 26.2804C27.5617 23.9193 29.4025 20.6129 29.8701 16.8773Z" fill="#2196F3"/>
<path d="M6.25 15C6.25 13.9457 6.44608 12.9395 6.7878 12.0035L1.73225 8.01233C0.630417 10.1 0 12.4752 0 15C0 17.4966 0.61882 19.8454 1.69777 21.9162L6.75972 17.9199C6.43555 17.0056 6.25 16.0256 6.25 15Z" fill="#FFC107"/>
<path d="M14.9995 23.75C11.1926 23.75 7.96252 21.3144 6.75922 17.9199L1.69727 21.9162C4.19856 26.7168 9.21176 30 14.9995 30C18.7842 30 22.2354 28.594 24.8713 26.2804L19.797 22.2743C18.426 23.1986 16.785 23.75 14.9995 23.75Z" fill="#00B060"/>
<path opacity="0.1" d="M14.9992 29.6875C10.5846 29.6875 6.61507 27.866 3.80859 24.9641C6.55586 28.0472 10.5447 30 14.9992 30C19.4124 30 23.3682 28.0858 26.1093 25.0509C23.3112 27.9058 19.3718 29.6875 14.9992 29.6875Z" fill="black"/>
<path opacity="0.1" d="M15 17.8125V18.125H23.1078L23.2344 17.8125H15Z" fill="black"/>
<path d="M29.9923 15.1838C29.9933 15.1222 29.9992 15.0617 29.9992 15C29.9992 14.9825 29.9965 14.9657 29.9964 14.9482C29.9955 15.0269 29.9916 15.1047 29.9923 15.1838Z" fill="#E6E6E6"/>
<path opacity="0.2" d="M15 11.875V12.1875H29.732C29.7123 12.0844 29.6908 11.9774 29.669 11.875H15Z" fill="white"/>
<path d="M29.669 11.875H15V18.125H23.1078C21.8469 21.402 18.7215 23.75 15 23.75C10.1675 23.75 6.25 19.8325 6.25 15C6.25 10.1675 10.1675 6.25 15 6.25C16.7523 6.25 18.3674 6.78833 19.7356 7.67586C19.9451 7.81197 20.1611 7.93976 20.3579 8.09258L24.9043 3.75511L24.8018 3.67622C22.1712 1.39633 18.7544 0 15 0C6.7157 0 0 6.7157 0 15C0 23.2842 6.7157 30 15 30C22.6471 30 28.9443 24.2735 29.8701 16.8773C29.9482 16.2627 30 15.6358 30 15C30 13.9277 29.8829 12.8835 29.669 11.875Z" fill="url(#paint0_linear_3411_2339)"/>
<path opacity="0.1" d="M19.7356 7.36337C18.3674 6.47585 16.7523 5.93752 15 5.93752C10.1675 5.93752 6.25 9.85498 6.25 14.6875C6.25 14.7402 6.25071 14.7814 6.25162 14.834C6.33593 10.0744 10.2203 6.25002 15 6.25002C16.7523 6.25002 18.3674 6.78835 19.7356 7.67587C19.9451 7.81198 20.1611 7.93977 20.3579 8.09259L24.9043 3.75513L20.3579 7.78009C20.1611 7.62727 19.9451 7.49948 19.7356 7.36337Z" fill="black"/>
<path opacity="0.2" d="M15 0.3125C18.7188 0.3125 22.1037 1.68549 24.7241 3.927L24.9043 3.75511L24.7668 3.63534C22.1362 1.35545 18.7544 0 15 0C6.7157 0 0 6.7157 0 15C0 15.0527 0.00732425 15.1036 0.00785825 15.1562C0.0925445 6.94481 6.76842 0.3125 15 0.3125Z" fill="white"/>
<defs>
<linearGradient id="paint0_linear_3411_2339" x1="0" y1="15" x2="30" y2="15" gradientUnits="userSpaceOnUse">
<stop stop-color="white" stop-opacity="0.2"/>
<stop offset="1" stop-color="white" stop-opacity="0"/>
</linearGradient>
</defs>
</svg>
