<svg width="13" height="14" viewBox="0 0 13 14" fill="none" xmlns="http://www.w3.org/2000/svg">
<g opacity="0.3" clip-path="url(#clip0_8280_9475)">
<path d="M12.9 6.69999C12.9 6.59999 12.8 6.49999 12.7 6.49999L10.3 3.99999C10 3.69999 9.5 3.69999 9.2 3.99999C8.9 4.29999 8.9 4.69999 9.2 4.99999L10.4 6.19999H4.7C4.3 6.29999 4 6.59999 4 6.99999C4 7.39999 4.3 7.79999 4.8 7.79999H10.5L9.2 8.99999C8.9 9.29999 8.9 9.79999 9.2 10.1C9.3 10.2 9.5 10.3 9.7 10.3C9.9 10.3 10.1 10.2 10.2 10.1L12.7 7.59999C12.8 7.49999 12.8 7.39999 12.9 7.39999C13 7.09999 13 6.89999 12.9 6.69999Z" fill="black"/>
<path d="M1.5 1.5H7V0H1C0.4 0 0 0.4 0 1V13C0 13.6 0.4 14 1 14H7V12.5H1.5V1.5Z" fill="black"/>
</g>
<defs>
<clipPath id="clip0_8280_9475">
<rect width="13" height="14" fill="white"/>
</clipPath>
</defs>
</svg>
