<svg width="26" height="36" viewBox="0 0 26 36" fill="none" xmlns="http://www.w3.org/2000/svg">
<path d="M18.2999 15.7C17.8999 15.3 17.2999 15.3 16.8999 15.7L12.9999 19.6L9.0999 15.7C8.6999 15.3 8.0999 15.3 7.6999 15.7C7.2999 16.1 7.2999 16.7 7.6999 17.1L11.5999 21L7.6999 24.9C7.2999 25.3 7.2999 25.9 7.6999 26.3C7.8999 26.5 8.1999 26.6 8.3999 26.6C8.5999 26.6 8.8999 26.5 9.0999 26.3L12.9999 22.4L16.8999 26.3C17.0999 26.5 17.3999 26.6 17.5999 26.6C17.7999 26.6 18.0999 26.5 18.2999 26.3C18.6999 25.9 18.6999 25.3 18.2999 24.9L14.3999 21L18.2999 17.1C18.6999 16.8 18.6999 16.1 18.2999 15.7Z" fill="black"/>
<path d="M24 0H11L0 11V34C0 35.1 0.9 36 2 36H24C25.1 36 26 35.1 26 34V2C26 0.9 25.1 0 24 0ZM10 3.8V9C10 9.6 9.6 10 9 10H3.8L10 3.8ZM24 34H2V12H9C10.7 12 12 10.7 12 9V2H24V34Z" fill="black"/>
</svg>
