<svg width="100" height="100" viewBox="0 0 100 100" fill="none" xmlns="http://www.w3.org/2000/svg">
<circle cx="50" cy="50" r="50" fill="#F5F5F5"/>
<path d="M32 34.1L37.2 39H32V62H61.3L65.5 66L66.5 64.9L33 33L32 34.1ZM44.8 46.3L53.5 54.6C52.5 55.3 51.3 55.7 50 55.7C46.6 55.7 43.9 52.9 43.9 49.6C43.9 48.4 44.2 47.2 44.8 46.3ZM43.7 45.2C42.9 46.5 42.4 48 42.4 49.5C42.4 53.7 45.8 57.1 50 57.1C51.7 57.1 53.3 56.6 54.6 55.6L59.8 60.6H33.5V40.5H38.7L43.7 45.2Z" fill="#cccccc"/>
<path d="M57.3 51.8C57.5 51.1 57.7 50.3 57.7 49.5C57.7 45.3 54.3 41.9 50.1 41.9C49.2 41.9 48.3 42.1 47.5 42.4L48.7 43.6C49.1 43.5 49.6 43.4 50.1 43.4C53.5 43.4 56.2 46.2 56.2 49.5C56.2 49.9 56.2 50.2 56.1 50.6L57.3 51.8Z" fill="#cccccc"/>
<path d="M60.6 39L55.7 34H44.2L41.5 36.6L42.6 37.6L44.8 35.4H55L59.9 40.5H66.5V59.5L68 60.9V39H60.6Z" fill="#cccccc"/>
</svg>
