<svg width="34" height="34" viewBox="0 0 34 34" fill="none" xmlns="http://www.w3.org/2000/svg">
<path d="M22.7433 11.9115C22.3345 11.5028 21.7215 11.5028 21.3127 11.9115L17.3276 15.8966L13.3426 11.9115C12.9338 11.5028 12.3207 11.5028 11.912 11.9115C11.5033 12.3203 11.5033 12.9333 11.912 13.3421L15.8971 17.3272L11.912 21.3122C11.5033 21.721 11.5033 22.3341 11.912 22.7428C12.1164 22.9471 12.4229 23.0493 12.6273 23.0493C12.8316 23.0493 13.1382 22.9471 13.3426 22.7428L17.3276 18.7577L21.3127 22.7428C21.5171 22.9471 21.8236 23.0493 22.028 23.0493C22.2324 23.0493 22.5389 22.9471 22.7433 22.7428C23.152 22.3341 23.152 21.721 22.7433 21.3122L18.7582 17.3272L22.7433 13.3421C23.152 13.0355 23.152 12.3203 22.7433 11.9115Z" fill="currentColor"/>
<circle cx="17.3272" cy="17.3272" r="14.3272" stroke="currentColor" stroke-width="2"/>
<rect x="27.9277" y="26.5127" width="8.5665" height="1.99806" rx="0.999031" transform="rotate(45 27.9277 26.5127)" fill="currentColor"/>
</svg>
