    <svg width="14" height="18" viewBox="0 0 14 18" fill="none" xmlns="http://www.w3.org/2000/svg">
<g clip-path="url(#clip0_3368_2165)">
<path d="M6.72914 17.998C5.56648 17.9777 4.15134 18.0365 2.73751 17.9547C2.4608 17.9412 2.1856 17.9062 1.91442 17.8501C0.872539 17.6287 0.311121 17.0436 0.131275 16.0057C0 15.2705 0 14.528 0 13.7859C0 12.1777 0.00189619 10.5706 0.00568857 8.96447C0.00831406 8.27989 0.00962681 7.59489 0.124273 6.9168C0.329499 5.70593 1.00469 5.07974 2.2553 4.93962C2.34281 4.93011 2.43033 4.90157 2.51522 4.91151C2.78871 4.94481 2.81497 4.79864 2.80315 4.58155C2.75677 3.68508 2.91386 2.83358 3.38163 2.04911C4.26642 0.565793 6.05526 -0.251111 7.73076 0.0693364C9.52485 0.411839 10.8814 1.77536 11.1522 3.50474C11.2152 3.90606 11.2069 4.30954 11.199 4.71302C11.196 4.85054 11.2354 4.89422 11.3784 4.9033C11.6185 4.91779 11.857 4.95017 12.0921 5.00017C13.1362 5.22375 13.6876 5.8041 13.8744 6.84804C13.9593 7.36033 13.9995 7.87887 13.9947 8.39795C14.0023 10.4161 14.0023 12.4342 13.9947 14.4523C13.9947 14.9488 13.9737 15.4469 13.8827 15.9378C13.6526 17.1737 12.9962 17.774 11.7272 17.9124C10.9426 17.9988 10.1554 17.9967 9.36776 17.9988C8.57092 17.9993 7.77583 17.998 6.72914 17.998ZM6.67094 16.6141C7.96706 16.6141 8.93674 16.6176 9.90642 16.6141C10.5549 16.6107 11.2039 16.6111 11.8453 16.49C12.2046 16.4221 12.4037 16.2197 12.475 15.8664C12.5695 15.3955 12.5923 14.9198 12.594 14.4441C12.6016 12.4335 12.6016 10.423 12.594 8.41266C12.594 7.93047 12.5704 7.44829 12.472 6.97172C12.4011 6.62576 12.2046 6.43116 11.855 6.36196C11.3439 6.2612 10.8267 6.24174 10.3094 6.24044C8.10752 6.23525 5.90502 6.23525 3.70194 6.24044C3.19216 6.24044 2.68282 6.26336 2.17785 6.35634C1.79759 6.4264 1.58448 6.63571 1.5276 7.00891C1.51447 7.0954 1.49391 7.17887 1.48384 7.26449C1.38538 8.09696 1.39632 8.9329 1.40464 9.7684C1.4217 11.5899 1.3565 13.4153 1.44402 15.2372C1.45443 15.5038 1.49853 15.7681 1.5753 16.0238C1.60263 16.1252 1.65674 16.2176 1.73209 16.2916C1.80744 16.3655 1.90133 16.4183 2.00413 16.4446C2.26351 16.518 2.5306 16.5615 2.80009 16.5743C4.19729 16.6543 5.59755 16.5925 6.67094 16.6128V16.6141ZM7.00131 4.8514C7.68657 4.8514 8.37182 4.8514 9.05795 4.8514C9.29687 4.8514 9.6198 4.93227 9.75327 4.81205C9.90598 4.6754 9.80184 4.35149 9.79702 4.10975C9.7804 2.81239 8.81947 1.67893 7.54304 1.44194C6.90392 1.31948 6.24161 1.41987 5.66901 1.726C5.09641 2.03213 4.64896 2.52505 4.40295 3.12073C4.20079 3.6081 4.20079 4.11494 4.19597 4.62739C4.19597 4.80037 4.23229 4.85832 4.42002 4.85573C5.2803 4.84362 6.14059 4.8514 7.00131 4.8514Z" fill="#73C949"/>
<path d="M6.30116 12.4417C6.30116 12.3409 6.29503 12.2397 6.30116 12.139C6.32479 11.8181 6.26747 11.572 5.99091 11.3208C5.41418 10.7979 5.47894 9.87595 6.06005 9.35917C6.19951 9.23437 6.36293 9.13853 6.54059 9.07733C6.71825 9.01614 6.90654 8.99084 7.09428 9.00294C7.28202 9.01504 7.46539 9.0643 7.63351 9.14778C7.80162 9.23126 7.95105 9.34726 8.07293 9.48891C8.58315 10.09 8.49738 10.9908 7.86858 11.4669C7.73424 11.569 7.69355 11.6702 7.69836 11.8255C7.70667 12.2579 7.70448 12.6904 7.69836 13.1228C7.69442 13.5432 7.39205 13.8485 6.99429 13.8454C6.60615 13.8424 6.30816 13.5393 6.29985 13.1323C6.30116 12.9027 6.30116 12.6709 6.30116 12.4417Z" fill="#73C949"/>
</g>
<defs>
<clipPath id="clip0_3368_2165">
<rect width="14" height="18" fill="white"/>
</clipPath>
</defs>
</svg>