<svg width="24" height="24" viewBox="0 0 24 24" fill="none" xmlns="http://www.w3.org/2000/svg">
<path d="M12 24C18.6274 24 24 18.6274 24 12C24 5.37258 18.6274 0 12 0C5.37258 0 0 5.37258 0 12C0 18.6274 5.37258 24 12 24Z" fill="url(#paint0_linear_1856_1272)"/>
<path d="M17.8998 6.70061L15.6998 17.6006C15.6998 17.6006 15.3998 18.4006 14.5998 18.1006L9.5998 14.3006L7.7998 13.5006L4.7998 12.4006C4.7998 12.4006 4.2998 12.2006 4.2998 11.9006C4.2998 11.6006 4.7998 11.4006 4.7998 11.4006L16.7998 6.80061C16.7998 6.70061 17.8998 6.10061 17.8998 6.70061Z" fill="white"/>
<path d="M9.09941 17.6014C9.09941 17.6014 9.09941 17.6014 8.89941 17.0014C8.69941 16.5014 7.89941 13.5014 7.89941 13.5014L15.2994 8.90139C15.2994 8.90139 15.7994 8.70139 15.7994 8.90139C15.7994 8.90139 15.9994 8.90139 15.5994 9.10139C15.2994 9.40139 9.69941 14.4014 9.69941 14.4014" fill="#C7DFEB"/>
<path d="M11.4996 15.7008L9.39961 17.6008C9.39961 17.6008 9.19961 17.8008 9.09961 17.6008L9.69961 14.3008" fill="#A8C9DE"/>
<defs>
<linearGradient id="paint0_linear_1856_1272" x1="12" y1="0" x2="12" y2="23.9125" gradientUnits="userSpaceOnUse">
<stop stop-color="#2EBFE8"/>
<stop offset="1" stop-color="#13A9DC"/>
</linearGradient>
</defs>
</svg>
