<svg width="22" height="22" viewBox="0 0 22 22" fill="none" xmlns="http://www.w3.org/2000/svg">
<g clip-path="url(#clip0_9905_8641)">
<rect width="22" height="22" rx="3" fill="#FADFE5"/>
<path d="M15.8211 15C17.1985 15 18.2354 14.4261 19 13.4269L17.9781 12.6472C17.7257 12.9799 17.3995 13.2494 17.0252 13.4345C16.6509 13.6196 16.2387 13.7153 15.8211 13.7139C14.3263 13.7139 13.2431 12.4959 13.2431 11.0013C13.2431 9.50672 14.3086 8.2201 15.8637 8.2201C16.555 8.2201 17.0436 8.38333 17.4698 8.64741V9.96159H18.7557V8.04543L18.5093 7.85152C17.8025 7.29528 16.7229 7 15.8206 7C13.6147 7 11.8205 8.79454 11.8205 11.0008C11.8205 13.205 13.6142 15 15.8211 15ZM11.5242 7.18871H9.28919L7.34526 12.8343H7.31511L5.38157 7.18871H3V8.47585H4.33944L6.64461 14.9106H7.86918V14.909L10.2731 8.47638H11.5231L11.5242 7.18871Z" fill="black"/>
</g>
<defs>
<clipPath id="clip0_9905_8641">
<rect width="22" height="22" fill="white"/>
</clipPath>
</defs>
</svg>
