<svg width="22" height="22" viewBox="0 0 22 22" fill="none" xmlns="http://www.w3.org/2000/svg">
<g clip-path="url(#clip0_8259_8790)">
<path d="M0 10.56C0 5.58195 0 3.09295 1.54648 1.54648C3.09295 0 5.58195 0 10.56 0H11.44C16.4181 0 18.907 0 20.4535 1.54648C22 3.09295 22 5.58195 22 10.56V11.44C22 16.4181 22 18.907 20.4535 20.4535C18.907 22 16.4181 22 11.44 22H10.56C5.58195 22 3.09295 22 1.54648 20.4535C0 18.907 0 16.4181 0 11.44V10.56Z" fill="#0077FF"/>
<path d="M11.7042 15.8493C6.69006 15.8493 3.8301 12.4118 3.71094 6.69177H6.2226C6.3051 10.8901 8.15673 12.6684 9.62339 13.0351V6.69177H11.9885V10.3126C13.4368 10.1568 14.9583 8.50677 15.4716 6.69177H17.8367C17.4425 8.92844 15.7925 10.5784 14.6192 11.2568C15.7925 11.8068 17.6718 13.2459 18.3868 15.8493H15.7833C15.2242 14.1076 13.831 12.7601 11.9885 12.5768V15.8493H11.7042Z" fill="white"/>
</g>
<defs>
<clipPath id="clip0_8259_8790">
<rect width="22" height="22" fill="white"/>
</clipPath>
</defs>
</svg>
