<svg width="24" height="24" viewBox="0 0 24 24" fill="none" xmlns="http://www.w3.org/2000/svg">
<path d="M20.2 3.5C17.8 1.1 14.9 0 11.8 0C5.2 0 0 5.3 0 11.9C0 14 0.5 16.1 1.6 17.9L0 24L6.4 22.4C8.1 23.4 10.1 23.8 12.1 23.8C18.6 23.8 23.9 18.5 24 11.9C23.7 8.9 22.4 5.8 20.2 3.5Z" fill="url(#paint0_linear_1856_1267)"/>
<path d="M8.8998 6.90039C8.6998 6.60039 8.3998 6.40039 8.0998 6.40039C7.7998 6.40039 7.7998 6.40039 7.5998 6.40039C7.3998 6.40039 7.1998 6.60039 6.7998 6.90039C6.4998 7.10039 5.7998 7.90039 5.7998 9.30039C5.7998 10.7004 6.7998 12.2004 7.0998 12.4004C7.2998 12.6004 9.1998 15.8004 12.1998 16.9004C14.6998 17.9004 15.1998 17.7004 15.6998 17.7004C16.1998 17.7004 17.3998 16.9004 17.5998 16.3004C17.7998 15.5004 17.7998 15.0004 17.7998 14.9004C17.5998 14.7004 17.4998 14.6004 17.2998 14.4004C16.9998 14.2004 15.5998 13.6004 15.1998 13.4004C14.8998 13.4004 14.5998 13.4004 14.5998 13.6004C14.2998 13.9004 13.7998 14.6004 13.5998 14.7004C13.3998 14.9004 13.2998 15.0004 12.9998 14.9004C12.6998 14.7004 11.6998 14.4004 10.5998 13.5004C9.5998 12.7004 9.1998 11.7004 8.9998 11.4004C8.7998 11.1004 8.9998 10.9004 9.1998 10.8004C9.3998 10.8004 9.4998 10.6004 9.6998 10.3004C9.8998 10.0004 9.6998 10.0004 9.8998 9.80039C10.0998 9.60039 9.8998 9.30039 9.8998 9.30039C9.6998 9.00039 9.0998 7.60039 8.8998 6.90039Z" fill="white"/>
<defs>
<linearGradient id="paint0_linear_1856_1267" x1="12" y1="0.0523" x2="12" y2="24.1088" gradientUnits="userSpaceOnUse">
<stop stop-color="#72BF44"/>
<stop offset="1" stop-color="#03AA4B"/>
</linearGradient>
</defs>
</svg>
